<svg xmlns="http://www.w3.org/2000/svg" xmlns:xlink="http://www.w3.org/1999/xlink" width="500" zoomAndPan="magnify" viewBox="0 0 375 374.999991" height="500" preserveAspectRatio="xMidYMid meet" version="1.0"><defs><g/><clipPath id="a3675fcba1"><path d="M 179 108.308594 L 243 108.308594 L 243 152 L 179 152 Z M 179 108.308594 " clip-rule="nonzero"/></clipPath><clipPath id="373d944577"><path d="M 120.863281 123 L 255.902344 123 L 255.902344 193.808594 L 120.863281 193.808594 Z M 120.863281 123 " clip-rule="nonzero"/></clipPath><clipPath id="7b1a3eb3b3"><path d="M 243 123 L 278.339844 123 L 278.339844 149 L 243 149 Z M 243 123 " clip-rule="nonzero"/></clipPath><clipPath id="979436b7b1"><path d="M 130 196 L 180 196 L 180 212.308594 L 130 212.308594 Z M 130 196 " clip-rule="nonzero"/></clipPath><clipPath id="8d4cc366eb"><path d="M 198 196 L 249 196 L 249 212.308594 L 198 212.308594 Z M 198 196 " clip-rule="nonzero"/></clipPath><clipPath id="ef5d82213a"><path d="M 191 193 L 216 193 L 216 212.308594 L 191 212.308594 Z M 191 193 " clip-rule="nonzero"/></clipPath><clipPath id="6a384f5f33"><path d="M 163 194 L 188 194 L 188 212.308594 L 163 212.308594 Z M 163 194 " clip-rule="nonzero"/></clipPath><clipPath id="317ed052bf"><path d="M 121 197 L 170 197 L 170 212.308594 L 121 212.308594 Z M 121 197 " clip-rule="nonzero"/></clipPath><clipPath id="0b023b7d87"><path d="M 209 197 L 258 197 L 258 212.308594 L 209 212.308594 Z M 209 197 " clip-rule="nonzero"/></clipPath><clipPath id="8b70aa73c0"><path d="M 152.484375 152.707031 L 224.851562 152.707031 L 224.851562 192.808594 L 152.484375 192.808594 Z M 152.484375 152.707031 " clip-rule="nonzero"/></clipPath><clipPath id="e65be2b875"><path d="M 176.617188 155.117188 C 180.316406 153.664062 184.542969 152.707031 188.683594 152.707031 C 192.824219 152.707031 196.804688 153.527344 200.476562 154.980469 C 200.554688 155.027344 200.632812 155.027344 200.710938 155.070312 C 214.496094 160.886719 224.648438 176.25 224.84375 192.808594 L 152.484375 192.808594 C 152.679688 176.15625 162.675781 160.796875 176.617188 155.117188 Z M 176.617188 155.117188 " clip-rule="nonzero"/></clipPath><clipPath id="9ac3aa2c39"><path d="M 152.484375 145.820312 L 228.984375 145.820312 L 228.984375 199.820312 L 152.484375 199.820312 Z M 152.484375 145.820312 " clip-rule="nonzero"/></clipPath></defs><g clip-path="url(#a3675fcba1)"><path fill="#545454" d="M 240.335938 148.460938 C 233.445312 139.875 219.199219 126.714844 197.886719 119.042969 C 219.359375 124.613281 237.367188 140.667969 241.484375 145.410156 C 244.203125 135.066406 243.761719 109.242188 179.964844 108.308594 C 200.628906 168.046875 240.335938 148.460938 240.335938 148.460938 " fill-opacity="1" fill-rule="nonzero"/></g><g clip-path="url(#373d944577)"><path fill="#545454" d="M 120.863281 183.242188 C 120.871094 181.949219 120.929688 180.710938 121.015625 179.457031 C 121.199219 176.964844 121.542969 174.515625 122.023438 172.132812 C 123.917969 162.570312 128.097656 154.1875 133.125 147.546875 C 135.640625 144.214844 138.351562 141.273438 141.144531 138.734375 C 143.933594 136.191406 146.777344 134.011719 149.589844 132.199219 C 155.203125 128.542969 160.628906 126.3125 165.1875 124.972656 C 167.464844 124.289062 169.550781 123.871094 171.367188 123.59375 C 173.1875 123.320312 174.746094 123.195312 176.007812 123.140625 C 177.269531 123.082031 178.238281 123.117188 178.882812 123.140625 C 179.53125 123.171875 179.867188 123.191406 179.867188 123.191406 C 179.867188 123.191406 179.535156 123.21875 178.886719 123.273438 C 178.238281 123.332031 177.289062 123.445312 176.058594 123.644531 C 173.597656 124.03125 170.035156 124.898438 165.765625 126.628906 C 161.5 128.355469 156.578125 131.078125 151.570312 134.980469 C 146.582031 138.890625 141.523438 144.042969 137.332031 150.5 C 135.25 153.730469 133.367188 157.265625 131.875 161.089844 C 130.394531 164.914062 129.265625 169.007812 128.636719 173.285156 C 127.417969 181.816406 128.125 191.1875 131.011719 200.121094 C 132.457031 204.59375 134.449219 208.960938 136.980469 213.0625 C 139.480469 217.175781 142.527344 221.027344 146.011719 224.476562 C 147.757812 226.203125 149.621094 227.8125 151.558594 229.335938 C 153.511719 230.839844 155.554688 232.238281 157.679688 233.503906 C 161.9375 236.027344 166.523438 238.015625 171.277344 239.429688 C 180.777344 242.257812 191.015625 242.597656 200.566406 240.621094 C 210.125 238.625 219.007812 234.289062 226.214844 228.363281 C 228.011719 226.878906 229.730469 225.324219 231.335938 223.679688 C 232.933594 222.035156 234.425781 220.316406 235.808594 218.539062 C 238.5625 214.980469 240.851562 211.183594 242.703125 207.308594 C 244.542969 203.421875 245.902344 199.441406 246.832031 195.492188 C 247.78125 191.546875 248.289062 187.632812 248.441406 183.851562 C 248.457031 183.394531 248.472656 182.941406 248.488281 182.492188 C 248.496094 181.996094 248.507812 181.503906 248.515625 181.011719 L 248.535156 180.277344 L 248.53125 179.601562 C 248.527344 179.152344 248.523438 178.707031 248.523438 178.261719 C 248.507812 177.371094 248.453125 176.457031 248.417969 175.570312 C 248.339844 174.6875 248.289062 173.804688 248.191406 172.941406 C 247.851562 169.480469 247.214844 166.226562 246.429688 163.207031 C 244.863281 157.300781 242.605469 152.359375 240.335938 148.460938 C 240.769531 147.613281 241.199219 146.457031 241.480469 145.394531 C 241.816406 145.769531 242.15625 146.15625 242.5 146.558594 C 245.558594 150.253906 248.855469 155.226562 251.355469 161.570312 C 252.625 164.730469 253.660156 168.222656 254.445312 171.980469 C 254.636719 172.917969 254.78125 173.878906 254.957031 174.847656 C 255.085938 175.828125 255.234375 176.800781 255.34375 177.820312 C 255.394531 178.335938 255.441406 178.851562 255.492188 179.371094 L 255.566406 180.152344 L 255.609375 180.882812 C 255.636719 181.375 255.664062 181.867188 255.691406 182.363281 L 255.703125 182.546875 L 255.707031 182.804688 L 255.707031 183.199219 L 255.710938 183.992188 C 255.707031 188.222656 255.308594 192.648438 254.414062 197.144531 C 253.5 201.636719 252.09375 206.199219 250.140625 210.679688 C 246.238281 219.640625 240.046875 228.238281 231.859375 235.152344 C 227.761719 238.597656 223.183594 241.628906 218.238281 244.082031 C 213.292969 246.546875 207.964844 248.390625 202.453125 249.566406 C 199.695312 250.160156 196.886719 250.5625 194.0625 250.8125 C 193.355469 250.882812 192.644531 250.910156 191.9375 250.964844 C 191.222656 250.996094 190.449219 251.03125 189.765625 251.046875 L 188.769531 251.0625 L 188.207031 251.066406 L 187.675781 251.058594 C 186.960938 251.050781 186.25 251.039062 185.539062 251 C 182.691406 250.890625 179.84375 250.59375 177.023438 250.113281 C 174.199219 249.648438 171.40625 248.992188 168.664062 248.164062 C 157.6875 244.859375 147.640625 238.664062 139.832031 230.59375 C 135.921875 226.558594 132.542969 222.085938 129.789062 217.332031 C 127.042969 212.574219 124.933594 207.539062 123.453125 202.425781 C 121.964844 197.316406 121.15625 192.113281 120.929688 187.023438 C 120.863281 185.78125 120.847656 184.375 120.863281 183.242188 " fill-opacity="1" fill-rule="nonzero"/></g><g clip-path="url(#7b1a3eb3b3)"><path fill="#545454" d="M 244.996094 147.859375 C 245.617188 146.875 251 138.757812 266.214844 128.949219 C 266.195312 128.925781 266.183594 128.90625 266.171875 128.886719 C 255.546875 134.429688 246.648438 143.726562 244.332031 146.253906 C 242.714844 141.582031 240.75 128.972656 264.257812 124.640625 C 268.199219 123.917969 272.851562 123.425781 278.34375 123.238281 C 277.042969 127.539062 275.5 131.132812 273.808594 134.132812 C 262.695312 153.894531 245.050781 147.972656 244.996094 147.859375 " fill-opacity="1" fill-rule="nonzero"/></g><g clip-path="url(#979436b7b1)"><path fill="#545454" d="M 130.574219 229.226562 C 145.734375 216.632812 160.320312 203.226562 179.230469 196.574219 C 171.800781 207.179688 164.339844 217.847656 156.808594 228.449219 C 156.304688 229.125 155.257812 229.800781 154.445312 229.800781 C 146.613281 229.902344 138.777344 229.867188 130.945312 229.867188 C 130.808594 229.667969 130.707031 229.429688 130.574219 229.226562 Z M 130.574219 229.226562 " fill-opacity="1" fill-rule="nonzero"/></g><g clip-path="url(#8d4cc366eb)"><path fill="#545454" d="M 198.542969 196.035156 C 210.902344 200.1875 238.355469 218.691406 248.550781 229.699219 C 247.742188 229.765625 247.132812 229.902344 246.527344 229.902344 C 239.535156 229.902344 232.546875 229.765625 225.523438 229.902344 C 223.429688 229.9375 222.316406 229.125 221.203125 227.539062 C 214.820312 218.386719 208.335938 209.304688 201.855469 200.1875 C 200.941406 198.871094 199.863281 197.65625 198.542969 196.035156 Z M 198.542969 196.035156 " fill-opacity="1" fill-rule="nonzero"/></g><g clip-path="url(#ef5d82213a)"><path fill="#545454" d="M 215.125 229.800781 C 208.03125 229.800781 201.144531 229.800781 193.851562 229.800781 C 192.972656 217.984375 192.0625 206.265625 191.148438 193.941406 C 192.601562 195.125 193.816406 195.933594 194.796875 196.914062 C 199.863281 202.078125 212.421875 222.40625 215.125 229.800781 Z M 215.125 229.800781 " fill-opacity="1" fill-rule="nonzero"/></g><g clip-path="url(#6a384f5f33)"><path fill="#545454" d="M 163.53125 229.667969 C 170.6875 217.273438 176.226562 204.171875 186.792969 194.347656 C 187.03125 194.414062 187.300781 194.480469 187.535156 194.550781 C 186.691406 206.199219 185.847656 217.847656 184.972656 229.632812 C 177.914062 229.667969 170.957031 229.667969 163.53125 229.667969 Z M 163.53125 229.667969 " fill-opacity="1" fill-rule="nonzero"/></g><g clip-path="url(#317ed052bf)"><path fill="#545454" d="M 169.203125 197.890625 C 151.847656 205.996094 136.957031 216.902344 121.59375 228.148438 C 121.59375 222.710938 121.523438 217.714844 121.695312 212.75 C 121.726562 212.109375 122.875 211.261719 123.71875 210.890625 C 136.820312 204.882812 150.5625 201.066406 164.746094 198.703125 C 166.027344 198.464844 167.34375 198.230469 169.203125 197.890625 Z M 169.203125 197.890625 " fill-opacity="1" fill-rule="nonzero"/></g><g clip-path="url(#0b023b7d87)"><path fill="#545454" d="M 257.09375 228.179688 C 241.460938 216.867188 226.335938 205.996094 209.316406 197.789062 C 225.421875 200.324219 240.785156 204.613281 255.40625 211.332031 C 256.621094 211.90625 257.164062 212.546875 257.128906 214 C 256.992188 218.457031 257.09375 222.980469 257.09375 228.179688 Z M 257.09375 228.179688 " fill-opacity="1" fill-rule="nonzero"/></g><path fill="#545454" d="M 204.488281 195.15625 C 219.683594 194.179688 234.84375 194.378906 249.902344 196.609375 C 252.164062 196.945312 255.171875 196.8125 256.417969 198.164062 C 257.601562 199.445312 256.925781 202.449219 257.027344 204.714844 C 257.0625 205.726562 257.027344 206.738281 257.027344 208.324219 C 239.941406 201.132812 222.449219 197.117188 204.488281 195.15625 Z M 204.488281 195.15625 " fill-opacity="1" fill-rule="nonzero"/><path fill="#545454" d="M 121.558594 207.550781 C 121.558594 204.914062 121.625 202.179688 121.523438 199.480469 C 121.492188 198.128906 122.097656 197.824219 123.28125 197.589844 C 135.265625 195.054688 147.421875 194.582031 159.613281 194.582031 C 164.171875 194.582031 168.761719 194.582031 173.289062 195.125 C 164.609375 196.644531 155.863281 197.757812 147.320312 199.816406 C 138.746094 201.84375 130.371094 204.847656 121.558594 207.550781 Z M 121.558594 207.550781 " fill-opacity="1" fill-rule="nonzero"/><g clip-path="url(#8b70aa73c0)"><g clip-path="url(#e65be2b875)"><path fill="#ffffff" d="M 152.484375 152.707031 L 224.851562 152.707031 L 224.851562 192.808594 L 152.484375 192.808594 Z M 152.484375 152.707031 " fill-opacity="1" fill-rule="nonzero"/></g></g><path fill="#545454" d="M 192.695312 184.546875 C 192.734375 184.503906 192.695312 184.503906 192.695312 184.546875 C 192.652344 184.546875 192.570312 184.585938 192.570312 184.585938 C 191.109375 186.089844 190.90625 188.53125 191.554688 190.398438 C 191.757812 191.007812 192.285156 191.945312 192.9375 192.230469 C 192.976562 192.230469 192.976562 192.230469 192.9375 192.230469 C 191.3125 190.15625 191.269531 186.699219 192.695312 184.546875 Z M 192.695312 184.546875 " fill-opacity="1" fill-rule="nonzero"/><g clip-path="url(#9ac3aa2c39)"><path fill="#545454" d="M 223.796875 196.78125 C 223.714844 196.78125 223.714844 196.742188 223.796875 196.703125 C 228.105469 194.097656 229.242188 188.570312 228.0625 184.015625 C 227.046875 180.03125 223.917969 177.1875 219.6875 177.144531 C 219.648438 177.144531 219.648438 177.105469 219.648438 177.105469 C 220.015625 173.242188 220.421875 169.378906 220.785156 165.476562 C 220.949219 163.6875 220.707031 162.753906 218.996094 161.980469 C 213.875 159.664062 207.816406 159.378906 202.328125 159.421875 C 202.289062 159.421875 202.289062 159.378906 202.289062 159.378906 L 202.289062 149.5 C 202.289062 149.417969 202.328125 149.296875 202.410156 149.214844 C 203.710938 148.035156 202.898438 145.839844 201.070312 145.921875 C 199.484375 146.003906 198.75 147.792969 199.726562 149.011719 C 199.808594 149.09375 199.847656 149.214844 199.929688 149.296875 C 199.929688 149.335938 199.972656 149.335938 199.972656 149.378906 L 200.011719 159.421875 C 200.011719 159.460938 199.972656 159.460938 199.972656 159.460938 L 195.988281 159.582031 C 195.945312 159.582031 195.945312 159.542969 195.945312 159.542969 L 195.945312 151.941406 C 195.945312 151.898438 195.988281 151.898438 195.988281 151.898438 C 196.3125 151.859375 196.960938 151.777344 197.207031 151.53125 C 197.613281 151.125 197.003906 150.921875 196.71875 150.882812 C 190.050781 149.785156 183.425781 148.726562 176.757812 147.628906 C 175.945312 147.507812 175.332031 147.386719 174.96875 147.34375 C 171.511719 146.980469 168.097656 147.957031 165.210938 149.90625 C 164.234375 150.558594 166.1875 151.574219 166.632812 151.734375 C 166.675781 151.734375 166.675781 151.777344 166.675781 151.816406 L 166.675781 161.332031 C 166.675781 161.371094 166.675781 161.371094 166.632812 161.371094 C 162.078125 161.980469 158.21875 164.015625 155.492188 167.796875 C 154.558594 169.097656 156.46875 168.933594 157.121094 168.933594 C 157.160156 168.933594 157.160156 168.972656 157.160156 168.972656 C 157.121094 169.828125 157.039062 170.398438 156.996094 170.601562 C 156.792969 171.496094 156.144531 171.496094 155.414062 171.65625 C 155.289062 171.699219 155.210938 171.78125 155.167969 171.941406 C 155.128906 172.714844 155.371094 173.445312 155.210938 174.179688 C 155.085938 174.746094 154.722656 175.195312 154.191406 175.519531 C 153.785156 175.765625 153.542969 175.96875 153.664062 176.414062 C 153.988281 177.714844 154.355469 178.773438 153.664062 179.953125 C 153.21875 180.683594 152.484375 180.886719 153.09375 181.902344 C 153.949219 183.246094 153.988281 184.261719 153.136719 185.644531 C 152.808594 186.132812 152.972656 186.539062 153.378906 186.945312 C 153.867188 187.433594 154.273438 187.839844 154.355469 188.488281 C 154.4375 189.222656 153.746094 190.523438 154.152344 191.050781 C 154.4375 191.417969 155.046875 191.417969 155.414062 191.742188 C 156.105469 192.351562 155.820312 193.53125 155.820312 194.261719 C 155.820312 195.359375 157.242188 194.585938 157.769531 194.992188 C 157.933594 195.117188 158.054688 195.277344 158.09375 195.480469 C 158.09375 195.523438 158.054688 195.5625 158.015625 195.5625 L 154.964844 195.765625 C 154.925781 195.765625 154.925781 195.765625 154.964844 195.765625 C 161.347656 196.5 167.691406 196.90625 174.113281 196.5 C 174.601562 196.457031 175.699219 196.417969 177.40625 196.292969 C 177.449219 196.292969 177.449219 196.292969 177.449219 196.292969 C 177.488281 196.253906 177.449219 196.253906 177.40625 196.253906 C 175.738281 196.132812 174.03125 196.011719 172.367188 195.847656 C 172.324219 195.847656 172.242188 195.808594 172.242188 195.808594 C 172.203125 195.808594 172.203125 195.765625 172.242188 195.765625 C 173.992188 195.765625 174.03125 195.683594 172.324219 195.5625 C 172.203125 195.5625 172.203125 195.523438 172.324219 195.480469 L 172.855469 195.320312 C 172.894531 195.320312 172.894531 195.277344 172.894531 195.277344 C 172.894531 195.195312 172.164062 195.117188 172.039062 195.117188 C 171.835938 195.074219 171.796875 194.871094 172.039062 194.832031 C 172.527344 194.789062 172.976562 194.789062 173.339844 194.75 C 173.585938 194.75 173.707031 194.628906 173.707031 194.382812 C 173.789062 193.328125 173.789062 192.105469 174.15625 191.132812 C 174.359375 190.523438 174.804688 190.441406 175.375 190.398438 C 175.496094 190.398438 175.578125 190.320312 175.578125 190.195312 C 175.699219 189.222656 175.820312 188.246094 175.945312 187.269531 C 175.984375 186.902344 176.023438 186.660156 176.105469 186.496094 C 176.269531 186.007812 176.554688 186.089844 176.960938 186.050781 C 177.488281 186.007812 178.058594 186.007812 178.585938 186.007812 C 179.238281 186.007812 179.601562 186.457031 179.480469 187.066406 C 179.398438 187.554688 179.074219 188 178.992188 188.367188 C 178.871094 188.734375 179.195312 188.894531 179.480469 189.058594 C 180.578125 189.707031 180.292969 190.726562 180.171875 191.78125 C 180.007812 192.839844 181.878906 191.78125 182 193.328125 C 182.042969 193.734375 182.042969 194.140625 182.082031 194.585938 C 182.082031 194.585938 182.042969 194.628906 182.042969 194.585938 C 181.59375 194.425781 181.027344 194.382812 180.375 194.425781 C 179.15625 194.464844 177.976562 194.546875 176.757812 194.667969 C 176.714844 194.667969 176.714844 194.667969 176.757812 194.667969 C 178.058594 194.789062 179.519531 194.914062 181.105469 194.953125 C 182.125 194.992188 183.34375 195.238281 184.195312 195.277344 C 185.457031 195.402344 186.675781 195.441406 187.9375 195.402344 C 187.976562 195.402344 188.019531 195.402344 188.019531 195.441406 C 188.628906 196.539062 189.402344 197.515625 190.335938 198.367188 C 190.375 198.410156 190.375 198.410156 190.335938 198.410156 L 183.097656 198.695312 C 182.894531 198.695312 182.894531 198.734375 183.097656 198.734375 C 183.992188 198.855469 185.132812 198.9375 185.78125 198.976562 C 190.621094 199.34375 195.5 199.667969 200.378906 199.382812 C 203.101562 199.222656 205.824219 199.058594 208.507812 198.816406 C 208.550781 198.816406 208.550781 198.816406 208.507812 198.773438 C 208.46875 198.734375 208.46875 198.734375 208.425781 198.734375 C 206.230469 198.570312 203.996094 198.492188 201.800781 198.410156 C 201.71875 198.410156 201.71875 198.367188 201.761719 198.328125 C 205.054688 195.320312 206.230469 190.5625 205.785156 186.253906 C 205.785156 186.210938 205.785156 186.210938 205.824219 186.210938 L 208.792969 186.210938 C 208.832031 186.210938 208.832031 186.253906 208.832031 186.253906 C 208.589844 190.15625 209.523438 193.976562 212.738281 196.5 C 212.777344 196.539062 212.777344 196.539062 212.738281 196.539062 C 210.824219 196.621094 208.347656 196.703125 205.335938 196.824219 C 205.335938 196.824219 205.296875 196.824219 205.296875 196.824219 C 205.296875 196.824219 205.296875 196.863281 205.335938 196.863281 C 205.621094 196.90625 205.90625 196.945312 206.191406 196.984375 C 209.6875 197.3125 213.144531 197.472656 216.640625 197.554688 C 220.542969 197.636719 224 197.351562 228.0625 197.027344 C 228.105469 197.027344 228.105469 197.027344 228.0625 197.027344 C 226.722656 196.90625 225.257812 196.78125 223.796875 196.78125 Z M 227.617188 186.660156 C 227.371094 186.132812 227.089844 185.644531 226.804688 185.113281 C 226.804688 185.113281 226.761719 185.113281 226.722656 185.113281 C 226.03125 185.683594 225.378906 186.375 224.851562 187.230469 C 224.609375 187.59375 224.242188 187.796875 223.796875 187.839844 C 223.753906 187.839844 223.714844 187.839844 223.714844 187.839844 C 222.699219 187.230469 224.972656 184.546875 225.421875 183.933594 C 225.503906 183.8125 225.542969 183.730469 225.542969 183.570312 L 225.585938 182.960938 C 225.585938 182.960938 225.585938 182.917969 225.585938 182.917969 C 225.625 182.878906 225.707031 182.835938 225.746094 182.878906 C 226.964844 183.527344 227.738281 185.195312 227.859375 186.496094 C 227.902344 186.660156 227.820312 187.105469 227.617188 186.660156 Z M 220.257812 164.175781 C 220.296875 164.175781 220.296875 164.21875 220.296875 164.257812 C 220.339844 164.625 220.296875 164.988281 220.175781 165.316406 C 220.175781 165.355469 220.136719 165.355469 220.09375 165.355469 L 218.875 165.4375 C 218.835938 165.4375 218.792969 165.476562 218.792969 165.519531 L 218.714844 167.390625 C 218.714844 167.46875 218.792969 167.550781 218.875 167.550781 C 219.160156 167.550781 219.445312 167.59375 219.730469 167.671875 C 219.890625 167.714844 219.972656 167.917969 219.730469 167.957031 C 219.40625 167.957031 219.039062 168 218.714844 168.039062 C 218.671875 168.039062 218.671875 168.078125 218.671875 168.078125 L 218.550781 170.234375 C 218.550781 170.273438 218.550781 170.273438 218.589844 170.273438 L 219.609375 170.355469 C 219.648438 170.355469 219.6875 170.355469 219.6875 170.398438 C 219.769531 170.480469 219.769531 170.519531 219.730469 170.601562 C 219.730469 170.640625 219.6875 170.640625 219.648438 170.640625 L 218.589844 170.722656 C 218.511719 170.722656 218.46875 170.761719 218.46875 170.84375 L 218.347656 173 C 218.347656 173.039062 218.347656 173.039062 218.386719 173.039062 C 218.835938 173.082031 219.121094 173.160156 219.324219 173.203125 C 219.609375 173.285156 219.484375 173.445312 219.28125 173.445312 C 218.957031 173.488281 218.632812 173.488281 218.304688 173.527344 C 218.265625 173.527344 218.265625 173.566406 218.265625 173.566406 L 218.144531 175.722656 C 218.144531 175.765625 218.183594 175.765625 218.183594 175.765625 L 219.039062 175.886719 C 219.078125 175.886719 219.121094 175.886719 219.121094 175.925781 C 219.160156 176.007812 219.199219 176.046875 219.121094 176.128906 C 219.121094 176.171875 219.078125 176.171875 219.039062 176.171875 L 218.101562 176.25 C 218.0625 176.25 218.0625 176.292969 218.0625 176.332031 L 217.898438 178.367188 C 217.898438 178.40625 217.941406 178.40625 217.941406 178.445312 L 218.917969 178.648438 C 218.957031 178.648438 218.996094 178.691406 218.996094 178.691406 C 219.039062 178.8125 219.078125 178.894531 219.078125 179.015625 C 219.078125 179.058594 219.039062 179.058594 219.039062 179.058594 L 216.925781 179.058594 C 216.882812 179.058594 216.84375 179.058594 216.84375 179.015625 L 216.761719 178.773438 C 216.761719 178.730469 216.722656 178.691406 216.722656 178.691406 C 216.4375 178.488281 216.109375 178.445312 215.828125 178.570312 C 215.582031 178.648438 215.460938 178.894531 215.339844 179.058594 C 215.257812 179.136719 215.257812 179.136719 215.296875 179.015625 L 215.582031 178.203125 C 215.625 178.121094 215.664062 178.082031 215.746094 178.082031 C 216.152344 178.039062 216.519531 178.039062 216.925781 178.082031 C 216.964844 178.082031 216.964844 178.039062 216.964844 178.039062 C 217.046875 177.429688 217.046875 176.820312 217.003906 176.25 C 217.003906 176.171875 216.925781 176.128906 216.84375 176.128906 L 215.136719 176.128906 C 214.972656 176.128906 214.933594 176.210938 214.933594 176.332031 C 214.933594 177.144531 214.851562 178 214.769531 178.894531 C 214.769531 178.933594 214.808594 178.976562 214.851562 179.015625 C 215.011719 179.058594 215.054688 179.058594 214.851562 179.097656 C 214.769531 179.097656 214.605469 179.015625 214.566406 179.015625 C 213.304688 178.855469 212.167969 178.976562 210.785156 179.097656 C 210.746094 179.097656 210.746094 179.097656 210.746094 179.058594 C 210.460938 174.257812 210.136719 169.503906 209.890625 164.707031 C 209.890625 164.421875 209.851562 164.175781 209.851562 163.972656 C 209.851562 163.769531 209.929688 163.566406 210.09375 163.445312 C 210.785156 162.917969 211.964844 162.792969 212.816406 162.792969 C 215.421875 162.792969 217.859375 163.242188 220.257812 164.175781 Z M 184.96875 154.175781 C 184.96875 154.136719 184.96875 154.136719 185.007812 154.09375 L 194.644531 152.183594 C 194.644531 152.183594 194.6875 152.183594 194.6875 152.222656 C 194.6875 154.664062 194.726562 157.144531 194.6875 159.625 C 194.6875 159.664062 194.644531 159.664062 194.644531 159.664062 C 192.367188 159.828125 190.089844 160.03125 187.855469 160.234375 C 187.816406 160.234375 187.734375 160.234375 187.816406 160.152344 C 188.464844 159.867188 190.539062 159.054688 190.132812 158.242188 C 189.683594 157.265625 185.902344 157.710938 185.007812 157.835938 C 184.96875 157.835938 184.96875 157.835938 184.96875 157.792969 Z M 184.96875 158.566406 C 186.351562 158.402344 187.816406 158.28125 189.195312 158.484375 C 189.320312 158.484375 189.359375 158.566406 189.238281 158.648438 C 189.15625 158.6875 189.074219 158.808594 188.992188 158.851562 C 188.179688 159.257812 187.328125 159.664062 186.472656 159.949219 C 186.433594 159.949219 186.390625 159.949219 186.390625 159.949219 L 185.007812 159.664062 C 184.96875 159.664062 184.96875 159.625 184.96875 159.582031 L 184.96875 158.566406 C 184.929688 158.605469 184.96875 158.566406 184.96875 158.566406 Z M 184.929688 160.519531 C 184.929688 160.476562 184.96875 160.476562 184.96875 160.476562 C 185.375 160.519531 185.417969 160.558594 185.007812 160.640625 C 184.96875 160.640625 184.929688 160.640625 184.929688 160.597656 C 184.929688 160.597656 184.929688 160.558594 184.929688 160.519531 Z M 190.011719 160.84375 C 196.394531 160.152344 202.898438 159.949219 209.320312 160.597656 C 211.761719 160.84375 214.078125 161.289062 216.316406 161.898438 C 216.597656 161.980469 217.046875 162.144531 217.574219 162.386719 C 217.574219 162.386719 217.65625 162.386719 217.65625 162.429688 C 217.65625 162.429688 217.65625 162.429688 217.617188 162.429688 C 215.828125 161.941406 213.957031 161.820312 212.128906 162.101562 C 210.988281 162.265625 209.808594 162.511719 209.320312 163.648438 C 209.320312 163.648438 209.28125 163.648438 209.28125 163.648438 C 208.589844 162.753906 207.046875 162.386719 205.949219 162.144531 C 204.199219 161.777344 202.410156 161.574219 200.621094 161.453125 C 194.6875 161.128906 188.546875 161.453125 182.734375 162.835938 C 182.570312 162.875 182.328125 162.917969 182.449219 162.632812 C 182.691406 162.0625 183.789062 161.898438 184.277344 161.738281 C 186.148438 161.371094 188.058594 161.046875 190.011719 160.84375 Z M 205.742188 163.972656 C 198.875 164.257812 191.960938 164.746094 185.089844 165.601562 C 185.050781 165.601562 185.050781 165.601562 185.050781 165.558594 L 185.050781 164.378906 C 185.050781 164.339844 185.089844 164.339844 185.089844 164.339844 C 189.726562 163.933594 194.359375 163.6875 198.996094 163.609375 C 201.230469 163.566406 203.507812 163.609375 205.742188 163.933594 C 205.90625 163.933594 205.90625 163.933594 205.742188 163.972656 Z M 174.234375 152.710938 C 174.234375 152.671875 174.277344 152.671875 174.277344 152.671875 L 183.789062 154.09375 C 183.832031 154.09375 183.832031 154.136719 183.832031 154.136719 L 183.832031 157.996094 C 183.832031 158.039062 183.832031 158.039062 183.789062 158.078125 C 183.300781 158.160156 181.066406 158.6875 181.636719 159.542969 C 181.917969 159.949219 183.300781 160.152344 183.789062 160.191406 C 183.832031 160.191406 183.832031 160.234375 183.832031 160.234375 L 183.871094 160.882812 C 183.871094 160.925781 183.871094 160.925781 183.832031 160.964844 C 183.464844 161.085938 183.140625 161.167969 182.773438 161.210938 C 182 161.371094 181.960938 161.820312 182.164062 163.445312 C 182.203125 163.851562 182.203125 164.257812 182.125 164.625 C 182.125 164.707031 182.042969 164.746094 181.960938 164.746094 L 180.292969 164.378906 C 180.292969 164.378906 177.570312 164.421875 176.757812 163.851562 C 176.429688 163.730469 176.066406 163.445312 175.902344 163.324219 C 175.414062 162.917969 174.847656 162.550781 174.277344 162.183594 C 174.277344 162.183594 174.277344 162.183594 174.277344 162.144531 Z M 183.832031 159.421875 C 183.832031 159.5 183.75 159.542969 183.707031 159.5 L 182.652344 159.296875 C 182.609375 159.296875 182.570312 159.257812 182.570312 159.21875 C 182.570312 159.175781 182.570312 159.09375 182.652344 159.09375 L 183.707031 158.808594 C 183.707031 158.808594 183.707031 158.808594 183.75 158.808594 C 183.789062 158.808594 183.832031 158.851562 183.871094 158.890625 Z M 181.269531 174.828125 C 181.066406 175.277344 179.96875 174.625 179.644531 174.460938 C 179.5625 174.421875 179.5625 174.382812 179.644531 174.382812 C 180.253906 174.179688 180.902344 174.097656 181.269531 174.746094 C 181.269531 174.746094 181.269531 174.789062 181.269531 174.828125 Z M 167.894531 151.859375 C 167.894531 151.816406 167.933594 151.816406 167.933594 151.816406 L 172.730469 152.550781 C 172.773438 152.550781 172.8125 152.589844 172.8125 152.628906 L 172.8125 161.453125 C 172.8125 161.492188 172.773438 161.492188 172.773438 161.492188 C 171.066406 161.085938 169.683594 161.046875 167.933594 161.128906 C 167.894531 161.128906 167.894531 161.085938 167.894531 161.085938 Z M 160.371094 166.820312 C 161.390625 166.332031 162.488281 166.007812 163.625 165.84375 C 163.664062 165.84375 163.664062 165.84375 163.625 165.882812 C 162.933594 166.496094 162.363281 166.902344 161.957031 167.226562 C 161.429688 167.59375 160.820312 167.347656 160.332031 167.023438 C 160.292969 166.941406 160.292969 166.902344 160.371094 166.820312 Z M 172.445312 170.113281 C 171.917969 169.828125 171.308594 169.625 170.660156 169.378906 C 170.578125 169.339844 170.496094 169.378906 170.453125 169.460938 C 169.4375 170.84375 168.179688 171.984375 166.675781 172.878906 C 166.429688 173 166.144531 173.082031 165.902344 173.082031 C 165.78125 173.082031 165.699219 173 165.699219 172.835938 C 165.65625 170.925781 166.714844 169.664062 168.179688 168.527344 C 168.585938 168.203125 168.949219 167.796875 169.195312 167.347656 C 169.195312 167.308594 169.277344 167.308594 169.277344 167.308594 C 170.535156 167.875 171.675781 169.015625 172.488281 170.070312 C 172.570312 170.113281 172.527344 170.152344 172.445312 170.113281 Z M 176.472656 177.390625 C 176.472656 177.472656 176.472656 177.472656 176.390625 177.429688 C 175.089844 176.128906 173.667969 174.871094 172.203125 173.691406 C 172.203125 173.691406 172.164062 173.691406 172.164062 173.691406 C 171.066406 175.519531 169.234375 177.226562 167.121094 177.796875 C 167.121094 177.796875 167.082031 177.796875 167.082031 177.757812 C 167.121094 176.332031 167.570312 175.113281 168.460938 174.054688 C 169.355469 173 170.820312 172.308594 171.066406 170.804688 C 171.066406 170.761719 171.105469 170.761719 171.144531 170.761719 C 173.707031 172.105469 175.984375 174.382812 176.472656 177.390625 Z M 167.933594 166.617188 C 167.363281 167.144531 166.753906 167.671875 166.144531 168.160156 C 165.535156 168.648438 165.046875 169.21875 164.480469 169.707031 C 164.113281 170.03125 163.910156 169.746094 163.789062 169.421875 C 163.585938 168.894531 163.585938 168.363281 163.707031 167.875 C 163.910156 167.144531 165.332031 166.332031 165.984375 166.046875 C 166.632812 165.761719 167.40625 166.046875 167.933594 166.496094 C 167.976562 166.496094 167.976562 166.574219 167.933594 166.617188 Z M 157.730469 168.730469 C 158.175781 168.28125 158.664062 167.917969 159.152344 167.511719 C 159.195312 167.511719 159.195312 167.511719 159.195312 167.550781 L 159.234375 168.324219 C 159.234375 168.363281 159.195312 168.445312 159.152344 168.527344 C 158.746094 168.894531 158.300781 169.015625 157.769531 168.933594 C 157.648438 168.851562 157.648438 168.8125 157.730469 168.730469 Z M 159.964844 190.523438 C 158.867188 190.15625 158.015625 189.015625 157.527344 187.960938 C 156.308594 185.277344 156.183594 182.066406 156.753906 179.21875 C 157.160156 177.144531 158.949219 172.511719 161.957031 173.894531 C 162.039062 173.933594 162.039062 173.976562 161.957031 174.015625 C 158.503906 175.683594 158.136719 181.089844 158.785156 184.300781 C 159.03125 185.5625 159.558594 186.863281 160.535156 187.714844 C 160.617188 187.796875 160.65625 187.796875 160.574219 187.675781 C 158.378906 184.585938 158.910156 179.953125 160.496094 176.78125 C 160.980469 175.804688 161.632812 175.03125 162.527344 174.421875 C 162.566406 174.382812 162.691406 174.382812 162.730469 174.460938 C 163.625 175.601562 164.234375 176.863281 164.480469 178.285156 C 164.480469 178.285156 164.4375 178.324219 164.4375 178.324219 C 161.511719 178.082031 161.308594 184.625 164.480469 184.789062 C 164.519531 184.789062 164.519531 184.828125 164.519531 184.828125 C 164.355469 186.050781 164.03125 187.230469 163.460938 188.328125 C 162.8125 189.667969 161.550781 191.050781 159.964844 190.523438 Z M 169.152344 192.921875 C 167.648438 193.613281 166.023438 193.976562 164.316406 193.9375 C 164.113281 193.9375 164.070312 193.855469 164.195312 193.652344 C 164.683594 192.878906 165.941406 192.433594 166.796875 192.1875 C 168.257812 191.742188 169.683594 191.292969 171.105469 190.765625 C 171.105469 190.765625 171.144531 190.765625 171.144531 190.804688 C 171.105469 191.78125 169.96875 192.554688 169.152344 192.921875 Z M 173.382812 191.578125 C 173.382812 191.660156 173.339844 191.660156 173.339844 191.578125 C 173.097656 190.601562 172.773438 189.667969 172.445312 188.734375 C 172.285156 188.246094 172.082031 187.230469 172.570312 186.902344 C 172.730469 186.820312 172.855469 186.820312 172.976562 186.945312 C 173.910156 187.839844 173.625 190.398438 173.382812 191.578125 Z M 175.617188 188.449219 C 175.617188 188.488281 175.578125 188.488281 175.578125 188.449219 C 174.847656 187.1875 173.953125 185.96875 172.976562 184.871094 C 172.976562 184.871094 172.933594 184.871094 172.933594 184.871094 C 171.960938 186.984375 168.828125 188.9375 166.550781 188.894531 C 166.472656 188.894531 166.429688 188.8125 166.429688 188.734375 C 166.59375 187.757812 167.40625 187.023438 168.179688 186.539062 C 169.804688 185.519531 171.550781 184.828125 172.773438 183.488281 C 173.136719 183.082031 173.015625 182.554688 173.097656 182.105469 C 173.136719 181.738281 173.300781 181.699219 173.542969 181.984375 C 175.089844 183.8125 175.984375 186.050781 175.617188 188.449219 Z M 176.757812 183.285156 C 175.578125 181.738281 174.234375 180.277344 173.015625 178.730469 C 172.976562 178.730469 172.933594 178.730469 172.933594 178.730469 C 171.757812 180.722656 169.480469 182.757812 167.160156 183.324219 C 167.121094 183.324219 167.121094 183.324219 167.121094 183.285156 C 168.097656 180.195312 170.941406 178.367188 172.648438 175.683594 C 172.648438 175.640625 172.691406 175.640625 172.730469 175.683594 C 172.894531 175.765625 173.058594 175.84375 173.179688 175.96875 C 175.128906 177.878906 176.351562 180.640625 176.757812 183.285156 C 176.796875 183.324219 176.757812 183.324219 176.757812 183.285156 Z M 177.730469 173.933594 C 177.203125 174.015625 176.917969 173.691406 176.796875 173.242188 C 175.902344 169.992188 173.992188 165.316406 170.699219 163.851562 C 167.976562 162.632812 165.007812 162.429688 162.078125 162.996094 C 162.078125 162.996094 162.039062 162.996094 162.039062 162.996094 C 162 162.996094 162 162.996094 162.039062 162.957031 C 165.007812 161.980469 168.257812 161.535156 171.347656 162.101562 C 174.398438 162.671875 176.59375 164.707031 178.097656 167.390625 C 179.074219 169.175781 179.847656 170.964844 180.414062 172.753906 C 180.578125 173.242188 180.253906 173.488281 179.804688 173.527344 C 179.15625 173.730469 178.464844 173.8125 177.730469 173.933594 Z M 181.433594 183.203125 C 180.699219 183.203125 179.886719 183.203125 179.195312 183.121094 C 179.15625 183.121094 179.15625 183.082031 179.15625 183.082031 L 179.035156 175.925781 C 179.035156 175.886719 179.074219 175.886719 179.074219 175.886719 L 181.433594 175.925781 C 181.472656 175.925781 181.472656 175.96875 181.472656 175.96875 L 181.472656 183.121094 C 181.511719 183.164062 181.472656 183.203125 181.433594 183.203125 Z M 182.246094 182.960938 C 182.203125 182.960938 182.203125 182.917969 182.203125 182.917969 C 182.285156 180.96875 182.367188 179.058594 182.449219 177.105469 C 182.488281 176.089844 183.546875 176.046875 184.238281 175.925781 C 184.359375 175.886719 184.480469 175.84375 184.601562 175.765625 C 184.726562 175.683594 184.683594 175.601562 184.523438 175.519531 C 183.503906 175.113281 182.570312 174.625 181.636719 174.097656 C 181.554688 174.054688 181.554688 174.015625 181.675781 174.015625 C 182.367188 174.054688 183.097656 174.054688 183.789062 174.015625 C 184.277344 174.015625 184.644531 174.015625 184.804688 174.097656 C 185.292969 174.300781 185.742188 174.949219 185.539062 175.480469 C 185.539062 175.519531 185.496094 175.519531 185.496094 175.558594 C 185.335938 175.683594 185.253906 175.804688 185.253906 176.007812 C 185.214844 178.082031 185.089844 180.15625 184.96875 182.1875 C 184.96875 182.226562 184.96875 182.226562 185.007812 182.226562 L 185.824219 182.308594 C 185.863281 182.308594 185.902344 182.351562 185.902344 182.351562 C 185.984375 182.554688 185.902344 182.632812 185.660156 182.675781 C 184.804688 182.757812 183.953125 182.796875 183.058594 182.878906 C 182.652344 183 182.40625 183 182.246094 182.960938 Z M 186.757812 189.75 C 186.757812 189.789062 186.757812 189.789062 186.71875 189.832031 C 184.929688 190.195312 183.546875 188.8125 183.015625 187.230469 C 182.894531 186.902344 182.773438 186.617188 182.773438 186.253906 C 182.773438 186.089844 182.855469 186.007812 183.015625 186.007812 L 184.035156 186.007812 C 184.074219 186.007812 184.117188 186.050781 184.15625 186.089844 C 184.359375 187.066406 184.765625 188.609375 185.863281 188.976562 C 185.902344 188.976562 185.902344 188.976562 185.863281 188.9375 C 185.375 188.164062 185.171875 187.351562 185.292969 186.496094 C 185.375 185.847656 186.3125 185.96875 186.71875 186.050781 C 186.796875 186.050781 186.839844 186.132812 186.839844 186.210938 C 186.675781 187.433594 186.675781 188.609375 186.757812 189.75 Z M 186.105469 174.542969 C 186.027344 174.503906 185.902344 174.460938 185.824219 174.421875 C 185.660156 174.339844 185.621094 174.257812 185.699219 174.179688 C 185.78125 174.097656 185.863281 174.097656 185.945312 174.097656 C 187.082031 174.097656 188.222656 174.097656 189.320312 174.136719 C 189.765625 174.136719 190.660156 174.910156 190.863281 175.316406 C 190.984375 175.519531 190.90625 175.640625 190.660156 175.683594 C 189.15625 175.722656 187.488281 175.074219 186.105469 174.542969 Z M 194.238281 177.472656 C 195.824219 176.699219 197.777344 176.78125 199.402344 177.347656 C 199.441406 177.347656 199.441406 177.347656 199.402344 177.347656 C 197.855469 177.347656 195.945312 177.511719 194.605469 178.121094 C 194.320312 178.242188 193.996094 178.40625 193.710938 178.527344 C 193.628906 178.570312 193.589844 178.527344 193.507812 178.527344 C 193.058594 178.203125 193.996094 177.550781 194.238281 177.472656 Z M 192.734375 175.113281 C 192.125 174.789062 191.472656 174.503906 190.863281 174.179688 C 190.824219 174.136719 190.824219 174.136719 190.863281 174.136719 C 191.71875 174.136719 192.570312 174.136719 193.382812 174.136719 C 193.953125 174.136719 194.320312 174.339844 194.5625 174.828125 C 194.5625 174.871094 194.5625 174.910156 194.523438 174.910156 C 193.996094 175.152344 193.261719 175.355469 192.734375 175.113281 Z M 198.34375 174.949219 C 198.304688 174.949219 198.261719 174.910156 198.261719 174.871094 C 198.34375 173.363281 196.921875 172.265625 195.5 172.265625 C 193.832031 172.226562 192.164062 172.1875 190.539062 172.265625 C 190.5 172.265625 190.5 172.265625 190.5 172.226562 L 190.5 171.453125 C 190.5 171.414062 190.539062 171.414062 190.539062 171.414062 C 193.179688 171.167969 196.027344 170.84375 198.589844 170.886719 C 200.621094 170.925781 200.214844 174.300781 200.214844 175.519531 C 200.214844 175.519531 200.175781 175.519531 200.175781 175.519531 C 199.605469 175.234375 198.996094 175.03125 198.34375 174.949219 Z M 188.628906 180.480469 C 188.585938 179.542969 188.585938 178.609375 188.507812 177.429688 C 188.464844 176.984375 188.628906 176.65625 188.992188 176.453125 C 189.683594 176.089844 190.742188 176.699219 191.3125 177.066406 C 191.3125 177.066406 191.3125 177.105469 191.3125 177.105469 C 190.253906 178.082031 189.359375 179.21875 188.628906 180.480469 C 188.628906 180.519531 188.628906 180.519531 188.628906 180.480469 Z M 193.222656 194.34375 C 191.230469 194.34375 189.644531 191.699219 189.644531 188.449219 C 189.683594 185.195312 191.3125 182.59375 193.304688 182.632812 C 195.296875 182.632812 196.882812 185.277344 196.882812 188.53125 C 196.839844 191.742188 195.214844 194.34375 193.222656 194.34375 Z M 197.980469 181.292969 C 197.328125 180.519531 197.410156 179.542969 197.367188 178.367188 C 197.367188 177.878906 197.53125 177.632812 198.058594 177.59375 C 198.832031 177.550781 199.5625 177.675781 200.296875 178 C 200.660156 178.164062 201.882812 178.648438 202.371094 179.179688 C 202.371094 179.21875 202.410156 179.21875 202.410156 179.261719 C 202.410156 179.625 202.125 179.625 201.839844 179.503906 C 201.109375 179.179688 200.378906 178.773438 199.605469 178.570312 C 199.523438 178.570312 199.484375 178.609375 199.441406 178.648438 C 199.28125 178.976562 198.953125 182.429688 197.980469 181.292969 Z M 200.417969 179.585938 C 200.417969 179.542969 200.457031 179.542969 200.457031 179.542969 C 202.9375 180.519531 204.441406 181.578125 205.011719 184.421875 C 205.054688 184.546875 204.972656 184.625 204.851562 184.667969 C 204.808594 184.667969 204.769531 184.625 204.6875 184.546875 C 203.792969 183.40625 202.777344 182.429688 201.597656 181.617188 C 201.554688 181.617188 201.515625 181.617188 201.515625 181.660156 C 201.109375 182.714844 200.582031 183.691406 199.890625 184.585938 C 199.6875 184.871094 199.035156 185.480469 198.914062 184.667969 C 198.832031 184.140625 199.523438 182.917969 199.929688 182.148438 C 200.378906 181.332031 200.457031 180.480469 200.417969 179.585938 Z M 202.042969 196.050781 C 201.964844 196.539062 201.71875 196.945312 201.476562 196.90625 C 201.230469 196.863281 201.109375 196.417969 201.191406 195.929688 C 201.273438 195.402344 201.515625 195.035156 201.761719 195.074219 C 202.003906 195.074219 202.125 195.523438 202.042969 196.050781 Z M 203.792969 193.855469 C 203.671875 194.300781 203.34375 194.222656 203.222656 193.855469 C 203.101562 193.410156 202.980469 192.960938 202.859375 192.472656 C 202.859375 192.433594 202.859375 192.433594 202.816406 192.472656 C 201.679688 193.488281 200.5 194.222656 199.117188 194.953125 C 198.953125 195.035156 198.792969 195.117188 198.628906 195.15625 C 198.425781 195.195312 198.34375 195.15625 198.386719 194.953125 C 198.425781 194.34375 198.996094 193.855469 199.523438 193.613281 C 200.296875 193.246094 200.867188 192.878906 201.230469 192.554688 C 202.085938 191.863281 202.449219 191.089844 202.859375 190.15625 C 202.859375 190.15625 202.859375 190.113281 202.898438 190.113281 C 202.9375 190.074219 202.980469 190.074219 203.019531 190.113281 C 203.875 191.132812 204.078125 192.636719 203.792969 193.855469 Z M 205.054688 189.015625 C 205.054688 189.058594 205.011719 189.058594 205.011719 189.097656 C 204.890625 189.140625 204.808594 189.097656 204.726562 188.976562 C 204.199219 188.082031 203.792969 187.433594 203.507812 187.023438 C 203.34375 186.78125 203.140625 186.78125 202.9375 187.023438 C 202.167969 187.839844 200.5 190.035156 199.28125 189.910156 C 199.117188 189.910156 199.078125 189.832031 199.15625 189.667969 C 200.296875 187.351562 202.289062 186.089844 202.613281 183.570312 C 202.613281 183.40625 202.695312 183.40625 202.816406 183.488281 C 202.898438 183.570312 202.980469 183.691406 203.0625 183.773438 C 203.671875 184.789062 204.28125 185.886719 204.769531 186.945312 C 205.054688 187.59375 205.257812 188.328125 205.054688 189.015625 Z M 205.296875 178.570312 C 205.175781 176.535156 204.972656 174.503906 204.769531 172.429688 C 204.605469 170.886719 204.402344 169.707031 204.160156 168.851562 C 203.710938 167.308594 202.980469 166.859375 201.351562 166.820312 C 200.785156 166.820312 200.214844 166.820312 199.6875 166.820312 C 194.644531 167.0625 189.929688 167.390625 185.621094 167.753906 C 185.417969 167.753906 185.253906 167.753906 185.132812 167.753906 C 185.089844 167.753906 185.050781 167.714844 185.050781 167.714844 C 184.96875 167.511719 184.96875 167.347656 185.089844 167.144531 C 185.089844 167.105469 185.132812 167.105469 185.171875 167.105469 C 185.496094 167.0625 185.660156 167.023438 185.742188 167.023438 C 189.238281 166.699219 192.773438 166.453125 196.269531 166.289062 C 198.304688 166.210938 200.296875 166.128906 202.328125 166.128906 C 204.644531 166.167969 205.132812 167.550781 205.378906 169.503906 C 205.5 170.355469 205.582031 171.210938 205.621094 172.105469 C 205.785156 174.257812 205.90625 176.414062 206.027344 178.570312 C 206.027344 178.609375 205.988281 178.609375 205.988281 178.609375 L 205.335938 178.609375 C 205.296875 178.609375 205.296875 178.609375 205.296875 178.570312 Z M 208.957031 182.917969 C 208.019531 182.917969 206.964844 182.960938 206.191406 182.351562 C 205.621094 181.902344 205.378906 181.128906 205.703125 180.4375 C 206.191406 179.464844 207.453125 179.585938 208.386719 179.585938 C 212.046875 179.667969 215.703125 179.789062 219.40625 179.871094 C 219.445312 179.871094 219.445312 179.910156 219.445312 179.910156 C 219.445312 180.480469 219.445312 181.050781 219.363281 181.578125 C 219.28125 182.269531 218.632812 182.960938 217.898438 182.960938 C 214.933594 182.960938 211.964844 182.960938 208.957031 182.917969 Z M 218.589844 184.828125 C 218.589844 184.871094 218.589844 184.871094 218.589844 184.828125 C 218.101562 184.503906 217.617188 184.300781 217.046875 184.179688 C 216.679688 184.097656 216.4375 184.015625 216.152344 183.8125 C 215.949219 183.652344 215.988281 183.570312 216.234375 183.527344 C 216.597656 183.488281 216.925781 183.488281 217.25 183.691406 C 217.738281 183.933594 218.347656 184.34375 218.589844 184.828125 Z M 219.972656 190.238281 C 219.363281 191.863281 217.820312 193.367188 215.949219 193.042969 C 213.753906 192.675781 212.574219 190.15625 212.574219 188.125 C 212.574219 188.082031 212.574219 188.082031 212.613281 188.082031 C 212.980469 188.328125 213.304688 188.609375 213.589844 188.9375 C 214.402344 189.832031 214.484375 190.929688 215.785156 191.375 C 215.828125 191.375 215.828125 191.375 215.785156 191.375 C 215.5 191.089844 215.339844 190.765625 215.296875 190.398438 C 215.296875 190.359375 215.296875 190.359375 215.339844 190.359375 C 217.414062 191.210938 219.363281 190.238281 219.484375 187.917969 C 219.566406 186.375 219.40625 184.828125 218.429688 183.609375 C 218.429688 183.570312 218.429688 183.570312 218.429688 183.527344 C 219.242188 182.757812 220.054688 184.953125 220.175781 185.441406 C 220.707031 187.023438 220.625 188.652344 219.972656 190.238281 Z M 221.601562 179.136719 C 221.601562 179.261719 221.640625 179.625 221.601562 180.195312 C 221.601562 180.722656 221.152344 180.804688 220.949219 180.359375 C 220.664062 179.707031 220.542969 179.015625 220.542969 178.242188 C 220.542969 178.203125 220.582031 178.164062 220.625 178.164062 C 220.828125 178.082031 221.03125 178.039062 221.273438 178.039062 C 222.535156 178.082031 224.039062 178.527344 224.894531 179.542969 C 224.933594 179.585938 224.933594 179.585938 224.933594 179.625 C 224.933594 179.667969 224.894531 179.667969 224.894531 179.667969 C 223.875 179.300781 223.023438 178.933594 221.925781 178.855469 C 221.679688 178.773438 221.601562 178.894531 221.601562 179.136719 Z M 222.65625 181.699219 C 222.859375 181.007812 222.902344 180.277344 222.859375 179.585938 C 222.859375 179.421875 222.902344 179.339844 223.0625 179.339844 C 223.144531 179.339844 223.265625 179.339844 223.429688 179.421875 C 225.136719 179.910156 226.519531 180.683594 227.089844 182.472656 C 227.128906 182.59375 227.167969 182.714844 227.167969 182.835938 C 227.167969 182.960938 227.128906 183 227.046875 182.878906 C 226.4375 182.1875 225.707031 181.578125 224.894531 181.128906 C 224.851562 181.089844 224.769531 181.128906 224.730469 181.128906 C 224.121094 181.699219 223.714844 182.351562 223.429688 183.164062 C 223.347656 183.449219 223.226562 183.691406 222.902344 183.652344 C 222.859375 183.652344 222.820312 183.609375 222.820312 183.609375 C 222.535156 182.960938 222.453125 182.351562 222.65625 181.699219 Z M 222.738281 192.390625 C 222.65625 192.105469 223.226562 191.578125 223.386719 191.457031 C 224.40625 190.726562 225.585938 189.910156 226.234375 188.8125 C 226.4375 188.488281 226.601562 188.042969 226.761719 187.675781 C 226.761719 187.636719 226.804688 187.636719 226.84375 187.636719 C 226.964844 187.675781 227.007812 187.714844 227.046875 187.757812 C 227.496094 189.222656 227.574219 190.804688 226.804688 192.230469 C 226.683594 192.433594 226.601562 192.433594 226.601562 192.1875 C 226.558594 191.660156 226.558594 191.089844 226.601562 190.480469 C 226.601562 190.398438 226.601562 190.398438 226.519531 190.441406 C 226.195312 190.683594 222.902344 193.125 222.738281 192.390625 Z M 222.738281 192.390625 " fill-opacity="1" fill-rule="nonzero"/></g><path fill="#545454" d="M 211.273438 164.949219 C 211.191406 164.949219 211.152344 164.988281 211.152344 165.070312 L 211.152344 166.859375 C 211.152344 166.902344 211.191406 166.941406 211.234375 166.941406 L 214.078125 167.144531 C 214.199219 167.144531 214.28125 167.0625 214.28125 166.980469 L 214.363281 165.113281 C 214.363281 165.03125 214.324219 164.988281 214.242188 164.988281 C 213.265625 164.910156 212.289062 164.910156 211.273438 164.949219 Z M 211.273438 164.949219 " fill-opacity="1" fill-rule="nonzero"/><path fill="#545454" d="M 215.542969 167.308594 L 217.574219 167.390625 C 217.65625 167.390625 217.695312 167.347656 217.695312 167.265625 L 217.777344 165.476562 C 217.777344 165.398438 217.738281 165.355469 217.65625 165.355469 L 215.625 165.273438 C 215.542969 165.273438 215.5 165.316406 215.5 165.398438 L 215.421875 167.183594 C 215.421875 167.265625 215.460938 167.308594 215.542969 167.308594 Z M 215.542969 167.308594 " fill-opacity="1" fill-rule="nonzero"/><path fill="#545454" d="M 214.117188 167.59375 C 213.347656 167.46875 212.574219 167.429688 211.800781 167.429688 C 211.640625 167.429688 211.476562 167.46875 211.355469 167.511719 C 211.3125 167.511719 211.3125 167.550781 211.3125 167.59375 L 211.355469 169.828125 C 211.355469 169.867188 211.394531 169.910156 211.4375 169.910156 L 214.078125 170.03125 C 214.117188 170.03125 214.117188 169.992188 214.117188 169.992188 L 214.199219 167.714844 C 214.160156 167.632812 214.160156 167.59375 214.117188 167.59375 Z M 214.117188 167.59375 " fill-opacity="1" fill-rule="nonzero"/><path fill="#545454" d="M 215.421875 170.113281 L 217.371094 170.195312 C 217.453125 170.195312 217.492188 170.152344 217.492188 170.070312 L 217.574219 168 C 217.574219 167.917969 217.535156 167.875 217.453125 167.875 L 215.5 167.796875 C 215.421875 167.796875 215.378906 167.835938 215.378906 167.917969 L 215.296875 169.992188 C 215.296875 170.070312 215.339844 170.113281 215.421875 170.113281 Z M 215.421875 170.113281 " fill-opacity="1" fill-rule="nonzero"/><path fill="#545454" d="M 213.914062 170.4375 C 213.101562 170.316406 212.289062 170.273438 211.4375 170.355469 C 211.394531 170.355469 211.394531 170.398438 211.394531 170.398438 L 211.4375 172.675781 C 211.4375 172.714844 211.476562 172.753906 211.515625 172.796875 C 212.289062 172.917969 213.0625 172.917969 213.875 172.878906 C 213.914062 172.878906 213.957031 172.835938 213.957031 172.796875 L 213.996094 170.601562 C 214.039062 170.519531 213.996094 170.480469 213.914062 170.4375 Z M 213.914062 170.4375 " fill-opacity="1" fill-rule="nonzero"/><path fill="#545454" d="M 215.175781 172.957031 C 215.785156 173.039062 216.476562 173.039062 217.128906 173.039062 C 217.207031 173.039062 217.332031 172.957031 217.332031 172.878906 L 217.414062 170.761719 C 217.414062 170.722656 217.371094 170.640625 217.289062 170.640625 C 216.640625 170.601562 215.988281 170.558594 215.378906 170.601562 C 215.296875 170.601562 215.21875 170.683594 215.21875 170.761719 L 215.09375 172.878906 C 215.136719 172.917969 215.136719 172.917969 215.175781 172.957031 Z M 215.175781 172.957031 " fill-opacity="1" fill-rule="nonzero"/><path fill="#545454" d="M 213.792969 173.324219 C 213.0625 173.242188 212.289062 173.242188 211.515625 173.285156 C 211.476562 173.285156 211.476562 173.324219 211.476562 173.324219 C 211.476562 174.097656 211.515625 174.871094 211.597656 175.601562 C 211.597656 175.640625 211.640625 175.640625 211.640625 175.640625 C 212.332031 175.683594 212.980469 175.683594 213.632812 175.601562 C 213.710938 175.601562 213.792969 175.519531 213.792969 175.4375 L 213.875 173.363281 C 213.875 173.363281 213.835938 173.324219 213.792969 173.324219 Z M 213.792969 173.324219 " fill-opacity="1" fill-rule="nonzero"/><path fill="#545454" d="M 215.054688 175.765625 C 215.746094 175.804688 216.4375 175.804688 217.046875 175.765625 C 217.128906 175.765625 217.167969 175.683594 217.167969 175.640625 C 217.207031 174.910156 217.25 174.21875 217.207031 173.527344 C 217.207031 173.488281 217.167969 173.488281 217.167969 173.488281 C 216.519531 173.40625 215.828125 173.40625 215.175781 173.445312 C 215.136719 173.445312 215.09375 173.488281 215.09375 173.527344 L 214.972656 175.722656 C 214.972656 175.722656 215.011719 175.765625 215.054688 175.765625 Z M 215.054688 175.765625 " fill-opacity="1" fill-rule="nonzero"/><path fill="#545454" d="M 213.589844 176.128906 C 212.980469 176.046875 212.371094 176.046875 211.71875 176.128906 C 211.679688 176.128906 211.679688 176.171875 211.679688 176.171875 L 211.800781 178.488281 C 211.800781 178.527344 211.84375 178.527344 211.84375 178.527344 L 213.550781 178.445312 C 213.589844 178.445312 213.671875 178.40625 213.671875 178.324219 L 213.753906 176.25 C 213.710938 176.210938 213.671875 176.128906 213.589844 176.128906 Z M 213.589844 176.128906 " fill-opacity="1" fill-rule="nonzero"/><path fill="#545454" d="M 194.15625 186.414062 C 193.34375 186.414062 192.734375 187.390625 192.734375 188.53125 C 192.734375 189.707031 193.382812 190.644531 194.199219 190.601562 C 195.011719 190.5625 195.621094 189.628906 195.621094 188.488281 C 195.582031 187.351562 194.929688 186.414062 194.15625 186.414062 Z M 194.15625 186.414062 " fill-opacity="1" fill-rule="nonzero"/><g fill="#545454" fill-opacity="1"><g transform="translate(84.630285, 245.151956)"><g><path d="M 17.265625 0 L 13.828125 0 C 13.546875 0 13.375 -0.148438 13.3125 -0.453125 L 12.390625 -5.1875 L 6.625 -5.1875 L 5.75 -0.453125 C 5.675781 -0.148438 5.5 0 5.21875 0 L 1.75 0 C 1.363281 0 1.222656 -0.179688 1.328125 -0.546875 L 6.71875 -25.515625 C 6.78125 -25.816406 6.960938 -25.96875 7.265625 -25.96875 L 11.78125 -25.96875 C 12.082031 -25.96875 12.265625 -25.816406 12.328125 -25.515625 L 17.71875 -0.546875 C 17.78125 -0.179688 17.628906 0 17.265625 0 Z M 11.578125 -8.953125 L 9.515625 -20.28125 L 7.4375 -8.953125 Z M 11.578125 -8.953125 "/></g></g></g><g fill="#545454" fill-opacity="1"><g transform="translate(105.820537, 245.151956)"><g><path d="M 1.625 -4.671875 L 1.625 -21.296875 C 1.625 -22.828125 2.023438 -23.988281 2.828125 -24.78125 C 3.628906 -25.570312 4.785156 -25.96875 6.296875 -25.96875 L 10.578125 -25.96875 C 12.085938 -25.96875 13.242188 -25.570312 14.046875 -24.78125 C 14.847656 -23.988281 15.25 -22.828125 15.25 -21.296875 L 15.25 -17.921875 C 15.25 -17.566406 15.078125 -17.390625 14.734375 -17.390625 L 11.484375 -17.390625 C 11.140625 -17.390625 10.96875 -17.566406 10.96875 -17.921875 L 10.96875 -20.375 C 10.96875 -21.238281 10.535156 -21.671875 9.671875 -21.671875 L 7.328125 -21.671875 C 6.460938 -21.671875 6.03125 -21.238281 6.03125 -20.375 L 6.03125 -5.578125 C 6.03125 -4.710938 6.460938 -4.28125 7.328125 -4.28125 L 9.671875 -4.28125 C 10.535156 -4.28125 10.96875 -4.710938 10.96875 -5.578125 L 10.96875 -9.9375 L 9.28125 -9.9375 C 8.9375 -9.9375 8.765625 -10.109375 8.765625 -10.453125 L 8.765625 -13.6875 C 8.765625 -14.039062 8.9375 -14.21875 9.28125 -14.21875 L 14.734375 -14.21875 C 15.078125 -14.21875 15.25 -14.039062 15.25 -13.6875 L 15.25 -4.671875 C 15.25 -3.160156 14.847656 -2.003906 14.046875 -1.203125 C 13.242188 -0.398438 12.085938 0 10.578125 0 L 6.296875 0 C 4.785156 0 3.628906 -0.398438 2.828125 -1.203125 C 2.023438 -2.003906 1.625 -3.160156 1.625 -4.671875 Z M 1.625 -4.671875 "/></g></g></g><g fill="#545454" fill-opacity="1"><g transform="translate(124.869142, 245.151956)"><g><path d="M 14.953125 -21.296875 L 14.953125 -13.375 C 14.953125 -11.207031 14.164062 -9.78125 12.59375 -9.09375 L 14.828125 -0.578125 C 14.941406 -0.191406 14.789062 0 14.375 0 L 11 0 C 10.695312 0 10.515625 -0.148438 10.453125 -0.453125 L 8.28125 -8.703125 L 6.03125 -8.703125 L 6.03125 -0.515625 C 6.03125 -0.171875 5.859375 0 5.515625 0 L 2.140625 0 C 1.796875 0 1.625 -0.171875 1.625 -0.515625 L 1.625 -25.4375 C 1.625 -25.789062 1.796875 -25.96875 2.140625 -25.96875 L 10.28125 -25.96875 C 11.820312 -25.96875 12.984375 -25.570312 13.765625 -24.78125 C 14.554688 -23.988281 14.953125 -22.828125 14.953125 -21.296875 Z M 6.03125 -12.984375 L 9.25 -12.984375 C 10.113281 -12.984375 10.546875 -13.414062 10.546875 -14.28125 L 10.546875 -20.375 C 10.546875 -21.238281 10.113281 -21.671875 9.25 -21.671875 L 6.03125 -21.671875 Z M 6.03125 -12.984375 "/></g></g></g><g fill="#545454" fill-opacity="1"><g transform="translate(143.625707, 245.151956)"><g><path d="M 1.625 -4.671875 L 1.625 -21.296875 C 1.625 -22.828125 2.023438 -23.988281 2.828125 -24.78125 C 3.628906 -25.570312 4.785156 -25.96875 6.296875 -25.96875 L 9.9375 -25.96875 C 11.46875 -25.96875 12.628906 -25.570312 13.421875 -24.78125 C 14.210938 -23.988281 14.609375 -22.828125 14.609375 -21.296875 L 14.609375 -4.671875 C 14.609375 -3.160156 14.210938 -2.003906 13.421875 -1.203125 C 12.628906 -0.398438 11.46875 0 9.9375 0 L 6.296875 0 C 4.785156 0 3.628906 -0.398438 2.828125 -1.203125 C 2.023438 -2.003906 1.625 -3.160156 1.625 -4.671875 Z M 7.234375 -4.1875 L 9.125 -4.1875 C 9.988281 -4.1875 10.421875 -4.617188 10.421875 -5.484375 L 10.421875 -20.484375 C 10.421875 -21.347656 9.988281 -21.78125 9.125 -21.78125 L 7.234375 -21.78125 C 6.367188 -21.78125 5.9375 -21.347656 5.9375 -20.484375 L 5.9375 -5.484375 C 5.9375 -4.617188 6.367188 -4.1875 7.234375 -4.1875 Z M 7.234375 -4.1875 "/></g></g></g><g fill="#545454" fill-opacity="1"><g transform="translate(162.025328, 245.151956)"><g><path d="M 1.5 -25.96875 L 13.4375 -25.96875 C 13.78125 -25.96875 13.953125 -25.789062 13.953125 -25.4375 L 13.953125 -22.203125 C 13.953125 -21.847656 13.78125 -21.671875 13.4375 -21.671875 L 9.671875 -21.671875 L 9.671875 -0.515625 C 9.671875 -0.171875 9.5 0 9.15625 0 L 5.78125 0 C 5.425781 0 5.25 -0.171875 5.25 -0.515625 L 5.25 -21.671875 L 1.5 -21.671875 C 1.144531 -21.671875 0.96875 -21.847656 0.96875 -22.203125 L 0.96875 -25.4375 C 0.96875 -25.789062 1.144531 -25.96875 1.5 -25.96875 Z M 1.5 -25.96875 "/></g></g></g><g fill="#545454" fill-opacity="1"><g transform="translate(179.126972, 245.151956)"><g><path d="M 10.96875 -25.96875 L 13.953125 -25.96875 C 14.128906 -25.96875 14.28125 -25.898438 14.40625 -25.765625 C 14.539062 -25.640625 14.609375 -25.488281 14.609375 -25.3125 L 14.609375 -4.671875 C 14.609375 -3.160156 14.210938 -2.003906 13.421875 -1.203125 C 12.628906 -0.398438 11.46875 0 9.9375 0 L 6.296875 0 C 4.785156 0 3.628906 -0.398438 2.828125 -1.203125 C 2.023438 -2.003906 1.625 -3.160156 1.625 -4.671875 L 1.625 -25.3125 C 1.625 -25.488281 1.6875 -25.640625 1.8125 -25.765625 C 1.945312 -25.898438 2.097656 -25.96875 2.265625 -25.96875 L 5.390625 -25.96875 C 5.554688 -25.96875 5.703125 -25.898438 5.828125 -25.765625 C 5.960938 -25.640625 6.03125 -25.488281 6.03125 -25.3125 L 6.03125 -5.578125 C 6.03125 -4.710938 6.460938 -4.28125 7.328125 -4.28125 L 9.015625 -4.28125 C 9.878906 -4.28125 10.3125 -4.710938 10.3125 -5.578125 L 10.3125 -25.3125 C 10.3125 -25.488281 10.375 -25.640625 10.5 -25.765625 C 10.632812 -25.898438 10.789062 -25.96875 10.96875 -25.96875 Z M 10.96875 -25.96875 "/></g></g></g><g fill="#545454" fill-opacity="1"><g transform="translate(197.526598, 245.151956)"><g><path d="M 14.953125 -21.296875 L 14.953125 -13.375 C 14.953125 -11.207031 14.164062 -9.78125 12.59375 -9.09375 L 14.828125 -0.578125 C 14.941406 -0.191406 14.789062 0 14.375 0 L 11 0 C 10.695312 0 10.515625 -0.148438 10.453125 -0.453125 L 8.28125 -8.703125 L 6.03125 -8.703125 L 6.03125 -0.515625 C 6.03125 -0.171875 5.859375 0 5.515625 0 L 2.140625 0 C 1.796875 0 1.625 -0.171875 1.625 -0.515625 L 1.625 -25.4375 C 1.625 -25.789062 1.796875 -25.96875 2.140625 -25.96875 L 10.28125 -25.96875 C 11.820312 -25.96875 12.984375 -25.570312 13.765625 -24.78125 C 14.554688 -23.988281 14.953125 -22.828125 14.953125 -21.296875 Z M 6.03125 -12.984375 L 9.25 -12.984375 C 10.113281 -12.984375 10.546875 -13.414062 10.546875 -14.28125 L 10.546875 -20.375 C 10.546875 -21.238281 10.113281 -21.671875 9.25 -21.671875 L 6.03125 -21.671875 Z M 6.03125 -12.984375 "/></g></g></g><g fill="#545454" fill-opacity="1"><g transform="translate(216.283166, 245.151956)"><g><path d="M 6.296875 -25.96875 L 9.9375 -25.96875 C 11.46875 -25.96875 12.628906 -25.570312 13.421875 -24.78125 C 14.210938 -23.988281 14.609375 -22.828125 14.609375 -21.296875 L 14.609375 -17.84375 C 14.609375 -17.5 14.429688 -17.328125 14.078125 -17.328125 L 10.703125 -17.328125 C 10.359375 -17.328125 10.1875 -17.5 10.1875 -17.84375 L 10.1875 -20.375 C 10.1875 -21.238281 9.753906 -21.671875 8.890625 -21.671875 L 7.328125 -21.671875 C 6.460938 -21.671875 6.03125 -21.238281 6.03125 -20.375 L 6.03125 -15.90625 L 13.765625 -13.375 C 14.328125 -13.132812 14.609375 -12.734375 14.609375 -12.171875 L 14.609375 -4.671875 C 14.609375 -3.160156 14.210938 -2.003906 13.421875 -1.203125 C 12.628906 -0.398438 11.46875 0 9.9375 0 L 6.296875 0 C 4.785156 0 3.628906 -0.398438 2.828125 -1.203125 C 2.023438 -2.003906 1.625 -3.160156 1.625 -4.671875 L 1.625 -8.078125 C 1.625 -8.421875 1.796875 -8.59375 2.140625 -8.59375 L 5.515625 -8.59375 C 5.859375 -8.59375 6.03125 -8.421875 6.03125 -8.078125 L 6.03125 -5.578125 C 6.03125 -4.710938 6.460938 -4.28125 7.328125 -4.28125 L 8.890625 -4.28125 C 9.753906 -4.28125 10.1875 -4.710938 10.1875 -5.578125 L 10.1875 -9.890625 L 2.5 -12.421875 C 1.914062 -12.617188 1.625 -13.019531 1.625 -13.625 L 1.625 -21.296875 C 1.625 -22.828125 2.023438 -23.988281 2.828125 -24.78125 C 3.628906 -25.570312 4.785156 -25.96875 6.296875 -25.96875 Z M 6.296875 -25.96875 "/></g></g></g><g fill="#545454" fill-opacity="1"><g transform="translate(234.682793, 245.151956)"><g><path d="M 1.5 -25.96875 L 13.4375 -25.96875 C 13.78125 -25.96875 13.953125 -25.789062 13.953125 -25.4375 L 13.953125 -22.203125 C 13.953125 -21.847656 13.78125 -21.671875 13.4375 -21.671875 L 9.671875 -21.671875 L 9.671875 -0.515625 C 9.671875 -0.171875 9.5 0 9.15625 0 L 5.78125 0 C 5.425781 0 5.25 -0.171875 5.25 -0.515625 L 5.25 -21.671875 L 1.5 -21.671875 C 1.144531 -21.671875 0.96875 -21.847656 0.96875 -22.203125 L 0.96875 -25.4375 C 0.96875 -25.789062 1.144531 -25.96875 1.5 -25.96875 Z M 1.5 -25.96875 "/></g></g></g><g fill="#545454" fill-opacity="1"><g transform="translate(251.784442, 245.151956)"><g><path d="M 15.515625 0 L 12.078125 0 C 11.703125 0 11.453125 -0.160156 11.328125 -0.484375 L 7.234375 -10.125 L 6.03125 -7.828125 L 6.03125 -0.65625 C 6.03125 -0.21875 5.816406 0 5.390625 0 L 2.265625 0 C 1.835938 0 1.625 -0.21875 1.625 -0.65625 L 1.625 -25.3125 C 1.625 -25.75 1.835938 -25.96875 2.265625 -25.96875 L 5.390625 -25.96875 C 5.816406 -25.96875 6.03125 -25.75 6.03125 -25.3125 L 6.03125 -15.25 L 11.03125 -25.46875 C 11.207031 -25.800781 11.457031 -25.96875 11.78125 -25.96875 L 15.1875 -25.96875 C 15.425781 -25.96875 15.585938 -25.894531 15.671875 -25.75 C 15.753906 -25.613281 15.742188 -25.425781 15.640625 -25.1875 L 10.125 -13.859375 L 16 -0.75 C 16.101562 -0.53125 16.113281 -0.347656 16.03125 -0.203125 C 15.945312 -0.0664062 15.773438 0 15.515625 0 Z M 15.515625 0 "/></g></g></g><g fill="#545454" fill-opacity="1"><g transform="translate(271.352235, 245.151956)"><g><path d="M 17.265625 0 L 13.828125 0 C 13.546875 0 13.375 -0.148438 13.3125 -0.453125 L 12.390625 -5.1875 L 6.625 -5.1875 L 5.75 -0.453125 C 5.675781 -0.148438 5.5 0 5.21875 0 L 1.75 0 C 1.363281 0 1.222656 -0.179688 1.328125 -0.546875 L 6.71875 -25.515625 C 6.78125 -25.816406 6.960938 -25.96875 7.265625 -25.96875 L 11.78125 -25.96875 C 12.082031 -25.96875 12.265625 -25.816406 12.328125 -25.515625 L 17.71875 -0.546875 C 17.78125 -0.179688 17.628906 0 17.265625 0 Z M 11.578125 -8.953125 L 9.515625 -20.28125 L 7.4375 -8.953125 Z M 11.578125 -8.953125 "/></g></g></g></svg>