<svg xmlns="http://www.w3.org/2000/svg" xmlns:xlink="http://www.w3.org/1999/xlink" width="500" zoomAndPan="magnify" viewBox="0 0 375 374.999991" height="500" preserveAspectRatio="xMidYMid meet" version="1.0"><defs><g/><clipPath id="4d089d3135"><path d="M 191 112.667969 L 289 112.667969 L 289 180 L 191 180 Z M 191 112.667969 " clip-rule="nonzero"/></clipPath><clipPath id="6c680e0cba"><path d="M 112.210938 112.667969 L 205 112.667969 L 205 172 L 112.210938 172 Z M 112.210938 112.667969 " clip-rule="nonzero"/></clipPath><clipPath id="feefac3e4c"><path d="M 120 162 L 138.609375 162 L 138.609375 167.089844 L 120 167.089844 Z M 120 162 " clip-rule="nonzero"/></clipPath><clipPath id="abc16f2684"><path d="M 80 162 L 115 162 L 115 167.089844 L 80 167.089844 Z M 80 162 " clip-rule="nonzero"/></clipPath><clipPath id="9dc2cda6e5"><path d="M 59 162 L 71 162 L 71 167.089844 L 59 167.089844 Z M 59 162 " clip-rule="nonzero"/></clipPath><clipPath id="2646f5e6be"><path d="M 42.609375 137 L 51 137 L 51 143 L 42.609375 143 Z M 42.609375 137 " clip-rule="nonzero"/></clipPath></defs><g clip-path="url(#4d089d3135)"><path fill="#ffffff" d="M 287.902344 164.652344 L 287.488281 164.652344 L 287.488281 157.367188 C 287.492188 156.460938 287.371094 155.574219 287.125 154.703125 C 286.878906 153.835938 286.519531 153.015625 286.046875 152.246094 C 285.570312 151.476562 285 150.785156 284.332031 150.175781 C 283.664062 149.566406 282.925781 149.058594 282.117188 148.65625 C 278.960938 147.082031 275.675781 145.847656 272.265625 144.945312 L 267.113281 133.265625 C 266.9375 132.871094 266.710938 132.507812 266.429688 132.179688 C 266.148438 131.851562 265.828125 131.570312 265.464844 131.335938 C 265.101562 131.101562 264.714844 130.925781 264.300781 130.804688 C 263.886719 130.683594 263.460938 130.625 263.03125 130.628906 L 243.375 130.628906 L 243.375 114.988281 C 243.375 114.695312 243.320312 114.40625 243.207031 114.132812 C 243.09375 113.859375 242.929688 113.617188 242.722656 113.410156 C 242.511719 113.199219 242.269531 113.039062 241.996094 112.921875 C 241.722656 112.808594 241.4375 112.753906 241.140625 112.753906 L 191.578125 112.753906 C 192.390625 113.339844 193.15625 113.984375 193.875 114.683594 C 195.472656 116.34375 196.824219 118.183594 197.929688 120.203125 C 199.035156 122.226562 199.855469 124.355469 200.390625 126.597656 C 202.296875 136.957031 204.871094 150.316406 206.683594 159.714844 C 207.03125 161.527344 207.351562 163.195312 207.640625 164.652344 C 207.71875 165.074219 207.800781 165.5 207.878906 165.863281 L 208.3125 168.074219 C 208.496094 169.058594 208.648438 169.769531 208.742188 170.3125 C 208.835938 170.851562 208.871094 170.957031 208.878906 170.980469 L 209.015625 171.699219 L 209.015625 171.777344 C 209.15625 172.578125 209.398438 173.347656 209.75 174.082031 C 210.222656 175.046875 210.832031 175.917969 211.574219 176.695312 C 212.320312 177.46875 213.164062 178.113281 214.109375 178.625 C 215.054688 179.136719 216.054688 179.496094 217.109375 179.695312 C 218.167969 179.894531 219.226562 179.929688 220.296875 179.800781 C 221.363281 179.667969 222.382812 179.378906 223.359375 178.929688 C 224.335938 178.476562 225.222656 177.890625 226.015625 177.164062 C 226.808594 176.4375 227.46875 175.609375 228.003906 174.675781 C 228.539062 173.742188 228.917969 172.75 229.144531 171.699219 L 262.371094 171.699219 C 262.492188 172.273438 262.664062 172.835938 262.882812 173.378906 C 263.097656 173.925781 263.363281 174.445312 263.667969 174.949219 C 263.976562 175.449219 264.324219 175.917969 264.710938 176.359375 C 265.097656 176.800781 265.519531 177.207031 265.976562 177.574219 C 266.433594 177.945312 266.917969 178.273438 267.429688 178.558594 C 267.945312 178.84375 268.476562 179.085938 269.03125 179.28125 C 269.582031 179.476562 270.148438 179.625 270.726562 179.726562 C 271.308594 179.824219 271.890625 179.875 272.476562 179.875 C 273.0625 179.875 273.648438 179.824219 274.226562 179.726562 C 274.804688 179.625 275.371094 179.476562 275.921875 179.28125 C 276.476562 179.085938 277.011719 178.84375 277.523438 178.558594 C 278.035156 178.273438 278.519531 177.945312 278.976562 177.574219 C 279.433594 177.207031 279.855469 176.800781 280.242188 176.359375 C 280.628906 175.917969 280.976562 175.449219 281.285156 174.949219 C 281.589844 174.445312 281.855469 173.925781 282.070312 173.378906 C 282.289062 172.835938 282.460938 172.273438 282.582031 171.699219 L 287.894531 171.699219 C 288.03125 171.699219 288.164062 171.675781 288.289062 171.621094 C 288.414062 171.570312 288.527344 171.496094 288.625 171.398438 C 288.71875 171.300781 288.792969 171.1875 288.84375 171.0625 C 288.898438 170.933594 288.921875 170.804688 288.921875 170.667969 L 288.921875 165.6875 C 288.921875 165.402344 288.820312 165.160156 288.625 164.960938 C 288.425781 164.757812 288.1875 164.65625 287.902344 164.652344 Z M 266.722656 144.320312 L 265.691406 145.945312 C 265.46875 146.289062 265.175781 146.5625 264.8125 146.757812 C 264.453125 146.953125 264.066406 147.054688 263.65625 147.054688 L 247.390625 147.054688 C 247.152344 147.054688 246.921875 147.011719 246.699219 146.917969 C 246.480469 146.828125 246.285156 146.695312 246.117188 146.527344 C 245.945312 146.359375 245.816406 146.164062 245.722656 145.941406 C 245.632812 145.722656 245.585938 145.492188 245.585938 145.25 L 245.585938 135.855469 C 245.585938 135.617188 245.632812 135.386719 245.722656 135.164062 C 245.816406 134.945312 245.945312 134.75 246.117188 134.582031 C 246.285156 134.410156 246.480469 134.28125 246.699219 134.1875 C 246.921875 134.097656 247.152344 134.050781 247.390625 134.050781 L 262.464844 134.050781 C 262.746094 134.050781 263.003906 134.125 263.238281 134.28125 C 263.472656 134.433594 263.648438 134.640625 263.757812 134.898438 L 266.910156 142.050781 C 267.070312 142.414062 267.136719 142.796875 267.105469 143.195312 C 267.078125 143.597656 266.957031 143.964844 266.742188 144.300781 Z M 266.722656 144.320312 " fill-opacity="1" fill-rule="nonzero"/></g><g clip-path="url(#6c680e0cba)"><path fill="#ffffff" d="M 204.066406 166.972656 L 203.972656 166.480469 L 203.878906 165.992188 C 203.582031 164.492188 203.253906 162.753906 202.878906 160.863281 C 201.035156 151.300781 198.433594 137.675781 197.019531 129.628906 C 196.675781 127.304688 195.992188 125.085938 194.96875 122.972656 C 193.945312 120.859375 192.628906 118.945312 191.019531 117.234375 C 189.585938 115.78125 187.925781 114.664062 186.039062 113.886719 C 184.148438 113.109375 182.183594 112.730469 180.140625 112.753906 L 112.230469 112.753906 C 113.46875 114.527344 114.898438 116.128906 116.523438 117.558594 C 118.144531 118.988281 119.917969 120.207031 121.835938 121.207031 C 123.75 122.207031 125.761719 122.96875 127.863281 123.484375 C 129.960938 124 132.09375 124.257812 134.257812 124.257812 L 164.816406 124.257812 C 165.113281 124.238281 165.402344 124.28125 165.683594 124.382812 C 165.964844 124.484375 166.214844 124.636719 166.429688 124.839844 C 166.648438 125.042969 166.816406 125.28125 166.933594 125.554688 C 167.050781 125.832031 167.113281 126.117188 167.113281 126.414062 C 167.113281 126.710938 167.050781 127 166.933594 127.273438 C 166.816406 127.546875 166.648438 127.785156 166.429688 127.988281 C 166.214844 128.191406 165.964844 128.347656 165.683594 128.445312 C 165.402344 128.546875 165.113281 128.589844 164.816406 128.570312 L 124.09375 128.570312 C 125.328125 130.34375 126.757812 131.945312 128.382812 133.375 C 130.007812 134.804688 131.777344 136.019531 133.695312 137.023438 C 135.613281 138.023438 137.621094 138.78125 139.722656 139.296875 C 141.824219 139.816406 143.957031 140.074219 146.117188 140.074219 L 172.636719 140.074219 C 172.988281 140.074219 173.320312 140.15625 173.632812 140.316406 C 173.941406 140.480469 174.199219 140.707031 174.398438 141 C 174.628906 141.328125 174.757812 141.691406 174.785156 142.09375 C 174.8125 142.492188 174.730469 142.871094 174.546875 143.226562 C 174.359375 143.585938 174.097656 143.867188 173.753906 144.074219 C 173.410156 144.285156 173.039062 144.386719 172.636719 144.386719 L 136.359375 144.386719 C 137.597656 146.164062 139.027344 147.765625 140.648438 149.195312 C 142.273438 150.625 144.042969 151.839844 145.960938 152.839844 C 147.878906 153.84375 149.890625 154.601562 151.988281 155.117188 C 154.089844 155.632812 156.222656 155.890625 158.386719 155.890625 L 180.464844 155.890625 C 180.816406 155.894531 181.148438 155.972656 181.460938 156.136719 C 181.773438 156.296875 182.03125 156.519531 182.234375 156.808594 C 182.460938 157.136719 182.589844 157.503906 182.613281 157.902344 C 182.636719 158.300781 182.558594 158.679688 182.371094 159.035156 C 182.1875 159.390625 181.921875 159.671875 181.578125 159.882812 C 181.238281 160.089844 180.863281 160.195312 180.464844 160.195312 L 152.101562 160.195312 C 154.0625 162.582031 156.324219 164.636719 158.890625 166.359375 C 161.457031 168.078125 164.21875 169.394531 167.171875 170.304688 C 167.550781 170.421875 167.941406 170.53125 168.332031 170.632812 C 170.980469 171.34375 173.671875 171.699219 176.414062 171.699219 L 204.988281 171.699219 C 204.988281 171.699219 204.777344 170.617188 204.421875 168.769531 C 204.3125 168.226562 204.195312 167.632812 204.066406 166.972656 Z M 204.066406 166.972656 " fill-opacity="1" fill-rule="nonzero"/></g><g clip-path="url(#feefac3e4c)"><path fill="#ffffff" d="M 136.625 167.328125 L 122.808594 167.328125 C 122.515625 167.328125 122.234375 167.273438 121.960938 167.160156 C 121.691406 167.046875 121.449219 166.886719 121.242188 166.679688 C 121.035156 166.472656 120.875 166.234375 120.761719 165.960938 C 120.648438 165.691406 120.59375 165.40625 120.59375 165.113281 C 120.59375 164.820312 120.648438 164.539062 120.761719 164.265625 C 120.875 163.996094 121.035156 163.753906 121.242188 163.546875 C 121.449219 163.339844 121.691406 163.179688 121.960938 163.066406 C 122.234375 162.953125 122.515625 162.898438 122.808594 162.898438 L 136.625 162.898438 C 136.917969 162.898438 137.199219 162.953125 137.472656 163.066406 C 137.742188 163.179688 137.984375 163.339844 138.191406 163.546875 C 138.398438 163.753906 138.558594 163.996094 138.671875 164.265625 C 138.785156 164.539062 138.839844 164.820312 138.839844 165.113281 C 138.839844 165.40625 138.785156 165.691406 138.671875 165.960938 C 138.558594 166.234375 138.398438 166.472656 138.191406 166.679688 C 137.984375 166.886719 137.742188 167.046875 137.472656 167.160156 C 137.199219 167.273438 136.917969 167.328125 136.625 167.328125 Z M 136.625 167.328125 " fill-opacity="1" fill-rule="nonzero"/></g><g clip-path="url(#abc16f2684)"><path fill="#ffffff" d="M 112.40625 167.328125 L 83.082031 167.328125 C 82.785156 167.328125 82.503906 167.273438 82.234375 167.160156 C 81.960938 167.046875 81.722656 166.886719 81.515625 166.679688 C 81.304688 166.472656 81.144531 166.234375 81.035156 165.960938 C 80.921875 165.691406 80.863281 165.40625 80.863281 165.113281 C 80.863281 164.820312 80.921875 164.539062 81.035156 164.265625 C 81.144531 163.996094 81.304688 163.753906 81.515625 163.546875 C 81.722656 163.339844 81.960938 163.179688 82.234375 163.066406 C 82.503906 162.953125 82.785156 162.898438 83.082031 162.898438 L 112.40625 162.898438 C 112.699219 162.898438 112.984375 162.953125 113.253906 163.066406 C 113.527344 163.179688 113.765625 163.339844 113.972656 163.546875 C 114.179688 163.753906 114.339844 163.996094 114.453125 164.265625 C 114.566406 164.539062 114.621094 164.820312 114.621094 165.113281 C 114.621094 165.40625 114.566406 165.691406 114.453125 165.960938 C 114.339844 166.234375 114.179688 166.472656 113.972656 166.679688 C 113.765625 166.886719 113.527344 167.046875 113.253906 167.160156 C 112.984375 167.273438 112.699219 167.328125 112.40625 167.328125 Z M 112.40625 167.328125 " fill-opacity="1" fill-rule="nonzero"/></g><g clip-path="url(#9dc2cda6e5)"><path fill="#ffffff" d="M 68.390625 167.328125 L 62.121094 167.328125 C 61.824219 167.328125 61.542969 167.273438 61.273438 167.160156 C 61 167.046875 60.761719 166.886719 60.554688 166.679688 C 60.34375 166.472656 60.183594 166.234375 60.074219 165.960938 C 59.960938 165.691406 59.902344 165.40625 59.902344 165.113281 C 59.902344 164.820312 59.960938 164.539062 60.074219 164.265625 C 60.183594 163.996094 60.34375 163.753906 60.554688 163.546875 C 60.761719 163.339844 61 163.179688 61.273438 163.066406 C 61.542969 162.953125 61.824219 162.898438 62.121094 162.898438 L 68.390625 162.898438 C 68.683594 162.898438 68.964844 162.953125 69.238281 163.066406 C 69.507812 163.179688 69.75 163.339844 69.957031 163.546875 C 70.164062 163.753906 70.324219 163.996094 70.4375 164.265625 C 70.550781 164.539062 70.605469 164.820312 70.605469 165.113281 C 70.605469 165.40625 70.550781 165.691406 70.4375 165.960938 C 70.324219 166.234375 70.164062 166.472656 69.957031 166.679688 C 69.75 166.886719 69.507812 167.046875 69.238281 167.160156 C 68.964844 167.273438 68.683594 167.328125 68.390625 167.328125 Z M 68.390625 167.328125 " fill-opacity="1" fill-rule="nonzero"/></g><path fill="#ffffff" d="M 124.792969 154.765625 L 68.390625 154.765625 C 68.097656 154.765625 67.8125 154.710938 67.542969 154.597656 C 67.269531 154.484375 67.03125 154.324219 66.824219 154.117188 C 66.617188 153.910156 66.457031 153.667969 66.34375 153.398438 C 66.230469 153.125 66.175781 152.84375 66.175781 152.550781 C 66.175781 152.257812 66.230469 151.972656 66.34375 151.703125 C 66.457031 151.429688 66.617188 151.191406 66.824219 150.984375 C 67.03125 150.777344 67.269531 150.617188 67.542969 150.503906 C 67.8125 150.390625 68.097656 150.335938 68.390625 150.335938 L 124.792969 150.335938 C 125.085938 150.335938 125.367188 150.390625 125.640625 150.503906 C 125.910156 150.617188 126.152344 150.777344 126.359375 150.984375 C 126.566406 151.191406 126.726562 151.429688 126.839844 151.703125 C 126.953125 151.972656 127.007812 152.257812 127.007812 152.550781 C 127.007812 152.84375 126.953125 153.125 126.839844 153.398438 C 126.726562 153.667969 126.566406 153.910156 126.359375 154.117188 C 126.152344 154.324219 125.910156 154.484375 125.640625 154.597656 C 125.367188 154.710938 125.085938 154.765625 124.792969 154.765625 Z M 124.792969 154.765625 " fill-opacity="1" fill-rule="nonzero"/><path fill="#ffffff" d="M 101.226562 142.257812 L 59.359375 142.257812 C 59.066406 142.257812 58.785156 142.203125 58.511719 142.089844 C 58.242188 141.976562 58.003906 141.816406 57.792969 141.609375 C 57.585938 141.402344 57.425781 141.160156 57.3125 140.890625 C 57.203125 140.617188 57.144531 140.335938 57.144531 140.042969 C 57.144531 139.75 57.203125 139.464844 57.3125 139.195312 C 57.425781 138.921875 57.585938 138.683594 57.792969 138.476562 C 58.003906 138.269531 58.242188 138.109375 58.511719 137.996094 C 58.785156 137.882812 59.066406 137.828125 59.359375 137.828125 L 101.226562 137.828125 C 101.523438 137.828125 101.804688 137.882812 102.074219 137.996094 C 102.347656 138.109375 102.585938 138.269531 102.792969 138.476562 C 103.003906 138.683594 103.164062 138.921875 103.273438 139.195312 C 103.386719 139.464844 103.445312 139.75 103.445312 140.042969 C 103.445312 140.335938 103.386719 140.617188 103.273438 140.890625 C 103.164062 141.160156 103.003906 141.402344 102.792969 141.609375 C 102.585938 141.816406 102.347656 141.976562 102.074219 142.089844 C 101.804688 142.203125 101.523438 142.257812 101.226562 142.257812 Z M 101.226562 142.257812 " fill-opacity="1" fill-rule="nonzero"/><g clip-path="url(#2646f5e6be)"><path fill="#ffffff" d="M 48.003906 142.257812 L 44.824219 142.257812 C 44.53125 142.257812 44.25 142.203125 43.976562 142.089844 C 43.707031 141.976562 43.464844 141.816406 43.257812 141.609375 C 43.050781 141.402344 42.890625 141.160156 42.777344 140.890625 C 42.667969 140.617188 42.609375 140.335938 42.609375 140.042969 C 42.609375 139.75 42.667969 139.464844 42.777344 139.195312 C 42.890625 138.921875 43.050781 138.683594 43.257812 138.476562 C 43.464844 138.269531 43.707031 138.109375 43.976562 137.996094 C 44.25 137.882812 44.53125 137.828125 44.824219 137.828125 L 48.003906 137.828125 C 48.300781 137.828125 48.582031 137.882812 48.851562 137.996094 C 49.125 138.109375 49.363281 138.269531 49.570312 138.476562 C 49.78125 138.683594 49.941406 138.921875 50.050781 139.195312 C 50.164062 139.464844 50.222656 139.75 50.222656 140.042969 C 50.222656 140.335938 50.164062 140.617188 50.050781 140.890625 C 49.941406 141.160156 49.78125 141.402344 49.570312 141.609375 C 49.363281 141.816406 49.125 141.976562 48.851562 142.089844 C 48.582031 142.203125 48.300781 142.257812 48.003906 142.257812 Z M 48.003906 142.257812 " fill-opacity="1" fill-rule="nonzero"/></g><path fill="#ffffff" d="M 122.222656 142.257812 L 114.988281 142.257812 C 114.695312 142.257812 114.410156 142.203125 114.140625 142.089844 C 113.867188 141.976562 113.628906 141.816406 113.421875 141.609375 C 113.214844 141.402344 113.054688 141.160156 112.941406 140.890625 C 112.828125 140.617188 112.773438 140.335938 112.773438 140.042969 C 112.773438 139.75 112.828125 139.464844 112.941406 139.195312 C 113.054688 138.921875 113.214844 138.683594 113.421875 138.476562 C 113.628906 138.269531 113.867188 138.109375 114.140625 137.996094 C 114.410156 137.882812 114.695312 137.828125 114.988281 137.828125 L 122.222656 137.828125 C 122.515625 137.828125 122.796875 137.882812 123.070312 137.996094 C 123.339844 138.109375 123.582031 138.269531 123.789062 138.476562 C 123.996094 138.683594 124.15625 138.921875 124.269531 139.195312 C 124.382812 139.464844 124.4375 139.75 124.4375 140.042969 C 124.4375 140.335938 124.382812 140.617188 124.269531 140.890625 C 124.15625 141.160156 123.996094 141.402344 123.789062 141.609375 C 123.582031 141.816406 123.339844 141.976562 123.070312 142.089844 C 122.796875 142.203125 122.515625 142.257812 122.222656 142.257812 Z M 122.222656 142.257812 " fill-opacity="1" fill-rule="nonzero"/><g fill="#ffffff" fill-opacity="1"><g transform="translate(93.796873, 233.86828)"><g><path d="M 21.96875 -5.484375 L 21.96875 0 L 2.890625 0 L 2.890625 -24.890625 L 9.375 -24.890625 L 9.375 -5.484375 Z M 21.96875 -5.484375 "/></g></g></g><g fill="#ffffff" fill-opacity="1"><g transform="translate(116.44164, 233.86828)"><g><path d="M 14.671875 -25.390625 C 17.273438 -25.390625 19.523438 -24.863281 21.421875 -23.8125 C 23.316406 -22.769531 24.785156 -21.28125 25.828125 -19.34375 C 26.878906 -17.40625 27.40625 -15.101562 27.40625 -12.4375 C 27.40625 -9.769531 26.878906 -7.46875 25.828125 -5.53125 C 24.785156 -3.59375 23.316406 -2.101562 21.421875 -1.0625 C 19.523438 -0.0195312 17.273438 0.5 14.671875 0.5 C 12.097656 0.5 9.851562 -0.0195312 7.9375 -1.0625 C 6.03125 -2.101562 4.554688 -3.59375 3.515625 -5.53125 C 2.472656 -7.46875 1.953125 -9.769531 1.953125 -12.4375 C 1.953125 -15.101562 2.472656 -17.40625 3.515625 -19.34375 C 4.554688 -21.28125 6.03125 -22.769531 7.9375 -23.8125 C 9.851562 -24.863281 12.097656 -25.390625 14.671875 -25.390625 Z M 14.671875 -4.25 C 16.546875 -4.25 18.03125 -4.957031 19.125 -6.375 C 20.21875 -7.800781 20.765625 -9.820312 20.765625 -12.4375 C 20.765625 -15.082031 20.21875 -17.109375 19.125 -18.515625 C 18.03125 -19.921875 16.546875 -20.625 14.671875 -20.625 C 12.796875 -20.625 11.3125 -19.921875 10.21875 -18.515625 C 9.125 -17.109375 8.578125 -15.082031 8.578125 -12.4375 C 8.578125 -9.820312 9.125 -7.800781 10.21875 -6.375 C 11.3125 -4.957031 12.796875 -4.25 14.671875 -4.25 Z M 14.671875 -4.25 "/></g></g></g><g fill="#ffffff" fill-opacity="1"><g transform="translate(144.855773, 233.86828)"><g><path d="M 14.75 -13.265625 L 25.71875 -13.265625 L 25.71875 0 L 20.65625 0 L 20.046875 -3.828125 L 18.96875 -1.078125 C 18.269531 -0.484375 17.46875 -0.0703125 16.5625 0.15625 C 15.664062 0.382812 14.554688 0.5 13.234375 0.5 C 11.023438 0.5 9.070312 0.0195312 7.375 -0.9375 C 5.675781 -1.894531 4.347656 -3.320312 3.390625 -5.21875 C 2.429688 -7.125 1.953125 -9.472656 1.953125 -12.265625 C 1.953125 -14.421875 2.285156 -16.316406 2.953125 -17.953125 C 3.628906 -19.585938 4.550781 -20.957031 5.71875 -22.0625 C 6.882812 -23.175781 8.226562 -24.007812 9.75 -24.5625 C 11.28125 -25.113281 12.898438 -25.390625 14.609375 -25.390625 C 16.984375 -25.390625 18.96875 -25.003906 20.5625 -24.234375 C 22.164062 -23.460938 23.40625 -22.421875 24.28125 -21.109375 C 25.164062 -19.804688 25.691406 -18.335938 25.859375 -16.703125 L 25.890625 -16.34375 L 19.40625 -16.34375 L 19.328125 -16.703125 C 18.796875 -19.316406 17.195312 -20.625 14.53125 -20.625 C 13.476562 -20.625 12.507812 -20.332031 11.625 -19.75 C 10.75 -19.175781 10.046875 -18.300781 9.515625 -17.125 C 8.992188 -15.945312 8.734375 -14.457031 8.734375 -12.65625 C 8.734375 -10.5625 9 -8.898438 9.53125 -7.671875 C 10.070312 -6.453125 10.78125 -5.578125 11.65625 -5.046875 C 12.539062 -4.515625 13.488281 -4.25 14.5 -4.25 C 15.769531 -4.25 16.816406 -4.566406 17.640625 -5.203125 C 18.472656 -5.847656 19.117188 -6.851562 19.578125 -8.21875 L 14.75 -8.21875 Z M 14.75 -13.265625 "/></g></g></g><g fill="#ffffff" fill-opacity="1"><g transform="translate(172.224202, 233.86828)"><g><path d="M 9.375 0 L 2.890625 0 L 2.890625 -24.890625 L 9.375 -24.890625 Z M 9.375 0 "/></g></g></g><g fill="#ffffff" fill-opacity="1"><g transform="translate(183.546585, 233.86828)"><g><path d="M 11.609375 -25.390625 C 13.796875 -25.390625 15.582031 -25.023438 16.96875 -24.296875 C 18.351562 -23.578125 19.40625 -22.597656 20.125 -21.359375 C 20.84375 -20.128906 21.285156 -18.742188 21.453125 -17.203125 L 14.96875 -17.203125 C 14.820312 -18.234375 14.460938 -19.0625 13.890625 -19.6875 C 13.328125 -20.3125 12.519531 -20.625 11.46875 -20.625 C 10.71875 -20.625 10.113281 -20.441406 9.65625 -20.078125 C 9.207031 -19.722656 8.984375 -19.160156 8.984375 -18.390625 C 8.984375 -17.597656 9.347656 -16.929688 10.078125 -16.390625 C 10.804688 -15.847656 12.195312 -15.335938 14.25 -14.859375 C 16.988281 -14.210938 18.957031 -13.21875 20.15625 -11.875 C 21.363281 -10.539062 21.96875 -8.914062 21.96875 -7 C 21.96875 -5.332031 21.5 -3.945312 20.5625 -2.84375 C 19.625 -1.738281 18.414062 -0.90625 16.9375 -0.34375 C 15.457031 0.21875 13.875 0.5 12.1875 0.5 C 9.039062 0.5 6.472656 -0.148438 4.484375 -1.453125 C 2.503906 -2.765625 1.414062 -4.816406 1.21875 -7.609375 L 7.71875 -7.609375 C 7.9375 -6.429688 8.460938 -5.578125 9.296875 -5.046875 C 10.140625 -4.515625 11.046875 -4.25 12.015625 -4.25 C 12.921875 -4.25 13.675781 -4.460938 14.28125 -4.890625 C 14.882812 -5.328125 15.1875 -5.882812 15.1875 -6.5625 C 15.1875 -7.207031 14.898438 -7.800781 14.328125 -8.34375 C 13.765625 -8.882812 12.710938 -9.347656 11.171875 -9.734375 C 9.296875 -10.210938 7.6875 -10.765625 6.34375 -11.390625 C 5 -12.015625 3.972656 -12.835938 3.265625 -13.859375 C 2.554688 -14.890625 2.203125 -16.234375 2.203125 -17.890625 C 2.203125 -19.492188 2.640625 -20.847656 3.515625 -21.953125 C 4.390625 -23.066406 5.539062 -23.914062 6.96875 -24.5 C 8.40625 -25.09375 9.953125 -25.390625 11.609375 -25.390625 Z M 11.609375 -25.390625 "/></g></g></g><g fill="#ffffff" fill-opacity="1"><g transform="translate(206.119231, 233.86828)"><g><path d="M 23.15625 -19.828125 L 15.078125 -19.828125 L 15.078125 0 L 8.578125 0 L 8.578125 -19.828125 L 0.5 -19.828125 L 0.5 -24.890625 L 23.15625 -24.890625 Z M 23.15625 -19.828125 "/></g></g></g><g fill="#ffffff" fill-opacity="1"><g transform="translate(228.908227, 233.86828)"><g><path d="M 15.875 -13.15625 L 26.296875 0 L 18.171875 0 L 11.140625 -9.59375 L 9.375 -7.640625 L 9.375 0 L 2.890625 0 L 2.890625 -24.890625 L 9.375 -24.890625 L 9.375 -13.890625 L 18.859375 -24.890625 L 26.609375 -24.890625 Z M 15.875 -13.15625 "/></g></g></g><g fill="#ffffff" fill-opacity="1"><g transform="translate(255.699725, 233.86828)"><g><path d="M 16.875 -6.453125 L 9.125 -6.453125 L 7.03125 0 L 0.140625 0 L 9.125 -24.890625 L 17.0625 -24.890625 L 26.03125 0 L 18.96875 0 Z M 13.015625 -19.15625 L 10.703125 -11.5 L 15.328125 -11.5 Z M 13.015625 -19.15625 "/></g></g></g></svg>