<svg width="28" height="28" viewBox="0 0 28 28" fill="none" xmlns="http://www.w3.org/2000/svg">
<path d="M14 28C21.732 28 28 21.732 28 14C28 6.26801 21.732 0 14 0C6.26801 0 0 6.26801 0 14C0 21.732 6.26801 28 14 28Z" fill="#F0F0F0"/>
<path d="M2.8942 5.47656C1.79448 6.90735 0.965258 8.55645 0.482422 10.348H7.76559L2.8942 5.47656Z" fill="#0052B4"/>
<path d="M27.5179 10.3479C27.0351 8.55646 26.2058 6.90735 25.1062 5.47656L20.2349 10.3479H27.5179Z" fill="#0052B4"/>
<path d="M0.482422 17.6523C0.965312 19.4438 1.79454 21.0929 2.8942 22.5236L7.76543 17.6523H0.482422Z" fill="#0052B4"/>
<path d="M22.5237 2.89413C21.0929 1.79442 19.4439 0.96519 17.6523 0.4823V7.76542L22.5237 2.89413Z" fill="#0052B4"/>
<path d="M5.47705 25.1059C6.90784 26.2056 8.55694 27.0348 10.3484 27.5177V20.2346L5.47705 25.1059Z" fill="#0052B4"/>
<path d="M10.3483 0.4823C8.55689 0.96519 6.90779 1.79442 5.47705 2.89407L10.3483 7.76536V0.4823Z" fill="#0052B4"/>
<path d="M17.6523 27.5177C19.4438 27.0348 21.0929 26.2056 22.5236 25.1059L17.6523 20.2346V27.5177Z" fill="#0052B4"/>
<path d="M20.2349 17.6523L25.1062 22.5237C26.2058 21.093 27.0351 19.4438 27.5179 17.6523H20.2349Z" fill="#0052B4"/>
<path d="M27.8815 12.1739H15.8262H15.8261V0.118508C15.2283 0.0406875 14.6189 0 14 0C13.381 0 12.7717 0.0406875 12.1739 0.118508V12.1738V12.1739H0.118508C0.0406875 12.7717 0 13.3811 0 14C0 14.619 0.0406875 15.2283 0.118508 15.8261H12.1738H12.1739V27.8815C12.7717 27.9593 13.381 28 14 28C14.6189 28 15.2283 27.9594 15.8261 27.8815V15.8262V15.8261H27.8815C27.9593 15.2283 28 14.619 28 14C28 13.3811 27.9593 12.7717 27.8815 12.1739Z" fill="#D80027"/>
<path d="M17.6519 17.6523L23.8991 23.8996C24.1865 23.6123 24.4606 23.312 24.7221 23.0008L19.3735 17.6522H17.6519V17.6523Z" fill="#D80027"/>
<path d="M10.3479 17.6523H10.3478L4.10059 23.8996C4.3878 24.1869 4.68809 24.461 4.99937 24.7225L10.3479 19.3739V17.6523Z" fill="#D80027"/>
<path d="M10.3476 10.3479V10.3478L4.10028 4.10046C3.81295 4.38768 3.53886 4.68797 3.27734 4.99925L8.62595 10.3479H10.3476V10.3479Z" fill="#D80027"/>
<path d="M17.6519 10.348L23.8992 4.10059C23.612 3.81326 23.3117 3.53917 23.0004 3.27771L17.6519 8.62631V10.348Z" fill="#D80027"/>
</svg>
