<svg xmlns="http://www.w3.org/2000/svg" xmlns:xlink="http://www.w3.org/1999/xlink" width="186" zoomAndPan="magnify" viewBox="0 0 375 374.999991" height="50
" preserveAspectRatio="xMidYMid meet" version="1.0">
<defs><g/><clipPath id="cd0bd52575">
<path d="M 129 111.691406 L 246 111.691406 L 246 200.191406 L 129 200.191406 Z M 129 111.691406 " clip-rule="nonzero"/></clipPath><clipPath id="d6fdb8999f">
<path d="M 177 131 L 201.652344 131 L 201.652344 155.949219 L 177 155.949219 Z M 177 131 " clip-rule="nonzero"/>
</clipPath>
<clipPath id="042e905df6">
<path d="M 173.152344 127.449219 L 195 127.449219 L 195 149 L 173.152344 149 Z M 173.152344 127.449219 " clip-rule="nonzero"/>
</clipPath>
</defs>
<g clip-path="url(#cd0bd52575)">
<path fill="#545454" d="M 232.453125 186.257812 L 230.472656 183.851562 L 234.929688 183.851562 L 237.109375 186.257812 Z M 226.75 186.257812 L 225.011719 183.851562 L 229.46875 183.851562 L 231.40625 186.257812 Z M 221.046875 186.257812 L 219.550781 183.851562 L 224.007812 183.851562 L 225.703125 186.257812 Z M 215.34375 186.257812 L 214.089844 183.851562 L 218.546875 183.851562 L 220 186.257812 Z M 174.816406 186.257812 L 175.273438 183.851562 L 213.085938 183.851562 L 214.296875 186.257812 Z M 168.507812 196.34375 L 171.058594 188.277344 L 204.835938 188.277344 L 207.804688 196.34375 Z M 168.765625 183.851562 L 174.125 183.851562 L 173.617188 186.257812 L 168.015625 186.257812 Z M 162.460938 183.375 L 163.5 180.96875 L 168.570312 180.96875 L 167.777344 183.375 Z M 166.820312 186.257812 L 161.21875 186.257812 L 162.253906 183.851562 L 167.617188 183.851562 Z M 160.199219 186.285156 L 153.996094 186.285156 L 154.605469 185.1875 L 160.695312 185.1875 Z M 153.25 184.8125 L 147.207031 184.8125 L 147.96875 183.714844 L 153.890625 183.714844 Z M 152.386719 186.285156 L 146.183594 186.285156 L 146.945312 185.1875 L 153.03125 185.1875 Z M 144.574219 186.285156 L 138.371094 186.285156 L 139.285156 185.1875 L 145.367188 185.1875 Z M 142.8125 180.96875 L 156.464844 180.96875 L 155.097656 183.375 L 140.816406 183.375 Z M 145.527344 177.707031 L 146.324219 176.746094 L 147.527344 175.296875 L 154.007812 175.296875 L 152.347656 177.707031 L 149.191406 177.707031 L 147.089844 180.492188 L 143.210938 180.492188 Z M 149.816406 172.546875 L 157.695312 172.546875 L 156.132812 174.953125 L 147.8125 174.953125 Z M 155.574219 171.089844 L 154.773438 172.191406 L 150.363281 172.191406 L 151.277344 171.089844 Z M 149.597656 116.496094 L 227.328125 116.496094 L 227.328125 165.550781 L 149.597656 165.550781 Z M 226.886719 174.953125 L 222.402344 174.953125 L 220.460938 172.546875 L 224.710938 172.546875 Z M 229.375 177.707031 L 222.554688 177.707031 L 220.714844 175.296875 L 227.199219 175.296875 Z M 231.894531 180.492188 L 221.1875 180.492188 L 219.515625 178.082031 L 229.71875 178.082031 Z M 218.980469 180.96875 L 224.054688 180.96875 L 225.847656 183.375 L 220.53125 183.375 Z M 212.8125 180.96875 L 217.890625 180.96875 L 219.394531 183.375 L 214.078125 183.375 Z M 211.726562 180.96875 L 212.941406 183.375 L 207.628906 183.375 L 206.648438 180.96875 Z M 202.863281 180.492188 L 202.054688 178.082031 L 206.847656 178.082031 L 207.894531 180.492188 Z M 205.558594 180.96875 L 206.492188 183.375 L 201.175781 183.375 L 200.484375 180.96875 Z M 196.757812 180.492188 L 196.234375 178.082031 L 201.027344 178.082031 L 201.785156 180.492188 Z M 199.394531 180.96875 L 200.035156 183.375 L 194.722656 183.375 L 194.320312 180.96875 Z M 190.648438 180.492188 L 190.414062 178.082031 L 195.207031 178.082031 L 195.679688 180.492188 Z M 193.230469 180.96875 L 193.582031 183.375 L 188.269531 183.375 L 188.15625 180.96875 Z M 184.539062 180.492188 L 184.59375 178.082031 L 189.386719 178.082031 L 189.570312 180.492188 Z M 181.992188 180.96875 L 187.066406 180.96875 L 187.132812 183.375 L 181.816406 183.375 Z M 178.433594 180.492188 L 178.773438 178.082031 L 183.566406 178.082031 L 183.460938 180.492188 Z M 175.828125 180.96875 L 180.902344 180.96875 L 180.679688 183.375 L 175.367188 183.375 Z M 172.328125 180.492188 L 172.957031 178.082031 L 177.746094 178.082031 L 177.355469 180.492188 Z M 169.660156 180.96875 L 174.738281 180.96875 L 174.230469 183.375 L 168.914062 183.375 Z M 167.136719 178.082031 L 171.929688 178.082031 L 171.246094 180.492188 L 166.214844 180.492188 Z M 164.902344 177.707031 L 165.9375 175.296875 L 170.457031 175.296875 L 169.65625 177.707031 Z M 160.109375 180.492188 L 161.316406 178.082031 L 166.109375 178.082031 L 165.140625 180.492188 Z M 162.410156 180.96875 L 161.324219 183.375 L 156.007812 183.375 L 157.335938 180.96875 Z M 155.492188 178.082031 L 160.289062 178.082031 L 159.03125 180.492188 L 154 180.492188 Z M 154.671875 178.082031 L 153.140625 180.492188 L 148.109375 180.492188 L 149.882812 178.082031 Z M 159.675781 175.296875 L 158.3125 177.707031 L 153.554688 177.707031 L 155.15625 175.296875 Z M 165.484375 172.191406 L 161.074219 172.191406 L 161.710938 171.089844 L 166.007812 171.089844 Z M 164.96875 175.296875 L 163.878906 177.707031 L 159.125 177.707031 L 160.449219 175.296875 Z M 167.972656 172.546875 L 166.984375 174.953125 L 162.496094 174.953125 L 163.722656 172.546875 Z M 170.839844 172.191406 L 166.429688 172.191406 L 166.925781 171.089844 L 171.222656 171.089844 Z M 173.132812 172.546875 L 172.429688 174.953125 L 167.941406 174.953125 L 168.878906 172.546875 Z M 176.191406 172.191406 L 171.785156 172.191406 L 172.144531 171.089844 L 176.4375 171.089844 Z M 175.945312 175.296875 L 175.433594 177.707031 L 170.671875 177.707031 L 171.425781 175.296875 Z M 178.289062 172.546875 L 177.875 174.953125 L 173.386719 174.953125 L 174.039062 172.546875 Z M 181.550781 172.191406 L 177.140625 172.191406 L 177.359375 171.089844 L 181.65625 171.089844 Z M 181.429688 175.296875 L 181.207031 177.707031 L 176.449219 177.707031 L 176.914062 175.296875 Z M 183.445312 172.546875 L 183.320312 174.953125 L 178.835938 174.953125 L 179.199219 172.546875 Z M 182.496094 172.191406 L 182.578125 171.089844 L 186.875 171.089844 L 186.902344 172.191406 Z M 186.980469 177.707031 L 182.226562 177.707031 L 182.398438 175.296875 L 186.917969 175.296875 Z M 188.605469 172.546875 L 188.765625 174.953125 L 184.28125 174.953125 L 184.355469 172.546875 Z M 187.851562 172.191406 L 187.792969 171.089844 L 192.09375 171.089844 L 192.261719 172.191406 Z M 192.753906 177.707031 L 188 177.707031 L 187.886719 175.296875 L 192.402344 175.296875 Z M 193.761719 172.546875 L 194.210938 174.953125 L 189.730469 174.953125 L 189.515625 172.546875 Z M 193.203125 172.191406 L 193.011719 171.089844 L 197.304688 171.089844 L 197.617188 172.191406 Z M 198.53125 177.707031 L 193.773438 177.707031 L 193.371094 175.296875 L 197.890625 175.296875 Z M 198.921875 172.546875 L 199.660156 174.953125 L 195.171875 174.953125 L 194.671875 172.546875 Z M 198.558594 172.191406 L 198.230469 171.089844 L 202.523438 171.089844 L 202.96875 172.191406 Z M 204.304688 177.707031 L 199.550781 177.707031 L 198.859375 175.296875 L 203.378906 175.296875 Z M 204.078125 172.546875 L 205.101562 174.953125 L 200.621094 174.953125 L 199.828125 172.546875 Z M 203.914062 172.191406 L 203.445312 171.089844 L 207.746094 171.089844 L 208.328125 172.191406 Z M 209.238281 172.546875 L 210.550781 174.953125 L 206.066406 174.953125 L 204.988281 172.546875 Z M 209.269531 172.191406 L 208.664062 171.089844 L 212.960938 171.089844 L 213.679688 172.191406 Z M 214.394531 172.546875 L 216 174.953125 L 211.511719 174.953125 L 210.148438 172.546875 Z M 214.625 172.191406 L 213.878906 171.089844 L 218.175781 171.089844 L 219.035156 172.191406 Z M 216.875 177.707031 L 215.320312 175.296875 L 219.839844 175.296875 L 221.632812 177.707031 Z M 213.695312 178.082031 L 218.488281 178.082031 L 220.109375 180.492188 L 215.078125 180.492188 Z M 212.667969 178.082031 L 214 180.492188 L 208.972656 180.492188 L 207.875 178.082031 Z M 209.832031 175.296875 L 214.351562 175.296875 L 215.855469 177.707031 L 211.101562 177.707031 Z M 210.082031 177.707031 L 205.324219 177.707031 L 204.347656 175.296875 L 208.867188 175.296875 Z M 219.09375 171.089844 L 223.390625 171.089844 L 224.390625 172.191406 L 219.980469 172.191406 Z M 219.554688 172.546875 L 221.441406 174.953125 L 216.957031 174.953125 L 215.304688 172.546875 Z M 155.71875 172.191406 L 156.492188 171.089844 L 160.789062 171.089844 L 160.128906 172.191406 Z M 162.996094 172.546875 L 161.726562 174.953125 L 157.242188 174.953125 L 158.746094 172.546875 Z M 234.5 183.375 L 226.875 183.375 L 225.039062 180.96875 L 232.320312 180.96875 Z M 245.527344 192.902344 L 225.046875 170.359375 L 228.15625 170.359375 C 230.195312 170.359375 231.851562 168.707031 231.851562 166.667969 L 231.851562 115.382812 C 231.851562 113.34375 230.195312 111.691406 228.15625 111.691406 L 148.765625 111.691406 C 146.730469 111.691406 145.074219 113.34375 145.074219 115.382812 L 145.074219 166.667969 C 145.074219 168.707031 146.730469 170.359375 148.765625 170.359375 L 129.257812 194.171875 C 129.089844 194.519531 129.03125 194.847656 129.074219 195.144531 C 128.9375 197.019531 129.808594 200.019531 132.753906 200.019531 L 243.449219 200.019531 C 245.847656 200.019531 246.074219 193.539062 245.527344 192.902344 " fill-opacity="1" fill-rule="nonzero"/>
</g>
<g clip-path="url(#d6fdb8999f)"><path fill="#545454" d="M 201.4375 141.148438 L 198.796875 140.890625 C 198.664062 140.488281 198.5 140.105469 198.308594 139.722656 L 199.992188 137.675781 C 200.136719 137.503906 200.117188 137.253906 199.964844 137.101562 L 196.683594 133.820312 C 196.664062 133.800781 196.644531 133.785156 196.617188 133.765625 C 196.605469 133.753906 196.597656 133.753906 196.585938 133.753906 C 196.566406 133.746094 196.558594 133.734375 196.539062 133.726562 C 196.53125 133.726562 196.519531 133.714844 196.511719 133.714844 C 196.492188 133.707031 196.480469 133.707031 196.460938 133.707031 C 196.453125 133.707031 196.441406 133.707031 196.425781 133.707031 C 196.40625 133.707031 196.394531 133.707031 196.375 133.707031 C 196.367188 133.707031 196.347656 133.707031 196.339844 133.707031 C 196.328125 133.707031 196.320312 133.707031 196.308594 133.707031 C 196.289062 133.707031 196.28125 133.714844 196.261719 133.714844 C 196.25 133.714844 196.242188 133.714844 196.234375 133.726562 C 196.214844 133.734375 196.203125 133.734375 196.183594 133.746094 C 196.175781 133.746094 196.164062 133.753906 196.164062 133.753906 C 196.148438 133.765625 196.117188 133.785156 196.097656 133.800781 L 194.0625 135.46875 C 193.6875 135.277344 193.296875 135.121094 192.894531 134.980469 L 192.636719 132.339844 C 192.617188 132.117188 192.425781 131.945312 192.207031 131.945312 L 187.566406 131.945312 C 187.347656 131.945312 187.15625 132.117188 187.136719 132.339844 L 186.878906 134.980469 C 186.695312 135.035156 186.515625 135.113281 186.332031 135.179688 C 186.304688 135.304688 186.265625 135.429688 186.226562 135.5625 L 189.308594 138.644531 C 189.441406 138.632812 189.566406 138.625 189.699219 138.613281 C 189.765625 138.613281 189.824219 138.613281 189.890625 138.613281 C 192.808594 138.613281 195.179688 140.984375 195.179688 143.902344 C 195.179688 143.988281 195.179688 144.074219 195.171875 144.152344 C 195.171875 144.179688 195.171875 144.210938 195.171875 144.238281 C 195.171875 144.296875 195.160156 144.351562 195.160156 144.410156 C 195.160156 144.441406 195.152344 144.46875 195.152344 144.507812 C 195.140625 144.582031 195.132812 144.648438 195.125 144.726562 C 195.113281 144.773438 195.105469 144.8125 195.105469 144.859375 C 195.09375 144.890625 195.09375 144.917969 195.085938 144.957031 C 195.074219 145.003906 195.066406 145.0625 195.054688 145.109375 C 195.054688 145.128906 195.046875 145.136719 195.046875 145.15625 C 194.96875 145.480469 194.863281 145.796875 194.722656 146.105469 C 194.195312 147.269531 193.257812 148.207031 192.089844 148.742188 C 191.785156 148.886719 191.46875 148.992188 191.144531 149.070312 C 191.125 149.070312 191.113281 149.078125 191.097656 149.078125 C 191.046875 149.089844 190.992188 149.097656 190.941406 149.109375 C 190.914062 149.117188 190.886719 149.117188 190.847656 149.125 C 190.800781 149.136719 190.761719 149.144531 190.714844 149.144531 C 190.644531 149.15625 190.570312 149.164062 190.492188 149.175781 C 190.464844 149.175781 190.4375 149.183594 190.398438 149.183594 C 190.339844 149.195312 190.28125 149.195312 190.226562 149.195312 C 190.195312 149.195312 190.167969 149.195312 190.140625 149.195312 C 190.054688 149.195312 189.976562 149.203125 189.890625 149.203125 C 186.972656 149.203125 184.601562 146.832031 184.601562 143.914062 C 184.601562 143.816406 184.601562 143.710938 184.609375 143.617188 C 184.609375 143.597656 184.609375 143.578125 184.609375 143.558594 C 184.621094 143.484375 184.621094 143.40625 184.628906 143.328125 L 181.550781 140.25 C 181.425781 140.289062 181.300781 140.316406 181.167969 140.355469 C 181.167969 140.355469 181.167969 140.363281 181.15625 140.363281 C 181.128906 140.449219 181.089844 140.527344 181.0625 140.613281 C 181.023438 140.707031 180.996094 140.804688 180.957031 140.898438 L 178.316406 141.160156 C 178.097656 141.175781 177.925781 141.367188 177.925781 141.589844 L 177.925781 146.226562 C 177.925781 146.449219 178.097656 146.640625 178.316406 146.660156 L 180.957031 146.917969 C 181.089844 147.320312 181.253906 147.703125 181.445312 148.085938 L 179.761719 150.132812 C 179.617188 150.304688 179.636719 150.550781 179.789062 150.703125 L 183.070312 153.984375 C 183.089844 154.003906 183.109375 154.023438 183.136719 154.042969 C 183.148438 154.054688 183.15625 154.054688 183.167969 154.054688 C 183.183594 154.0625 183.195312 154.070312 183.214844 154.082031 C 183.222656 154.082031 183.234375 154.089844 183.242188 154.089844 C 183.261719 154.101562 183.269531 154.101562 183.289062 154.101562 C 183.300781 154.101562 183.308594 154.101562 183.328125 154.101562 C 183.347656 154.101562 183.355469 154.101562 183.375 154.101562 C 183.386719 154.101562 183.40625 154.101562 183.414062 154.101562 C 183.425781 154.101562 183.433594 154.101562 183.445312 154.101562 C 183.460938 154.101562 183.472656 154.089844 183.492188 154.089844 C 183.5 154.089844 183.511719 154.089844 183.519531 154.082031 C 183.539062 154.070312 183.546875 154.070312 183.566406 154.0625 C 183.578125 154.0625 183.585938 154.054688 183.585938 154.054688 C 183.605469 154.042969 183.636719 154.023438 183.652344 154.003906 L 185.699219 152.320312 C 186.082031 152.511719 186.464844 152.675781 186.867188 152.808594 L 187.125 155.449219 C 187.144531 155.667969 187.335938 155.839844 187.558594 155.839844 L 192.195312 155.839844 C 192.417969 155.839844 192.605469 155.667969 192.625 155.449219 L 192.886719 152.808594 C 193.285156 152.675781 193.679688 152.511719 194.050781 152.320312 L 196.097656 154.003906 C 196.117188 154.023438 196.136719 154.035156 196.164062 154.054688 C 196.175781 154.054688 196.183594 154.0625 196.183594 154.0625 C 196.203125 154.070312 196.214844 154.082031 196.234375 154.082031 C 196.242188 154.082031 196.25 154.089844 196.261719 154.089844 C 196.28125 154.089844 196.289062 154.101562 196.308594 154.101562 C 196.320312 154.101562 196.328125 154.101562 196.339844 154.101562 C 196.347656 154.101562 196.367188 154.101562 196.375 154.101562 C 196.394531 154.101562 196.40625 154.101562 196.425781 154.101562 C 196.433594 154.101562 196.441406 154.101562 196.460938 154.101562 C 196.480469 154.101562 196.492188 154.089844 196.511719 154.089844 C 196.519531 154.089844 196.53125 154.082031 196.539062 154.082031 C 196.558594 154.070312 196.566406 154.0625 196.585938 154.054688 C 196.597656 154.054688 196.605469 154.042969 196.617188 154.042969 C 196.632812 154.023438 196.664062 154.015625 196.683594 153.984375 L 199.964844 150.703125 C 200.117188 150.550781 200.136719 150.304688 199.992188 150.132812 L 198.316406 148.074219 C 198.507812 147.691406 198.671875 147.308594 198.804688 146.90625 L 201.445312 146.648438 C 201.667969 146.628906 201.839844 146.4375 201.839844 146.21875 L 201.839844 141.578125 C 201.828125 141.359375 201.65625 141.167969 201.4375 141.148438 Z M 201.4375 141.148438 " fill-opacity="1" fill-rule="nonzero"/>
</g>
<g clip-path="url(#042e905df6)">
<path fill="#545454" d="M 175.457031 138.078125 C 175.476562 138.097656 175.496094 138.105469 175.503906 138.125 C 175.570312 138.183594 175.628906 138.242188 175.695312 138.289062 C 175.703125 138.289062 175.703125 138.296875 175.714844 138.296875 C 175.78125 138.355469 175.859375 138.414062 175.925781 138.460938 C 175.945312 138.46875 175.964844 138.488281 175.980469 138.5 C 176.050781 138.546875 176.105469 138.59375 176.171875 138.632812 C 176.183594 138.644531 176.191406 138.644531 176.203125 138.652344 C 176.277344 138.699219 176.347656 138.746094 176.421875 138.796875 C 176.441406 138.804688 176.460938 138.824219 176.488281 138.835938 C 176.554688 138.871094 176.613281 138.910156 176.679688 138.9375 C 176.699219 138.949219 176.710938 138.957031 176.726562 138.96875 C 176.804688 139.007812 176.882812 139.042969 176.957031 139.082031 C 176.988281 139.09375 177.003906 139.101562 177.035156 139.121094 C 177.09375 139.148438 177.160156 139.179688 177.214844 139.199219 C 177.234375 139.207031 177.253906 139.214844 177.28125 139.226562 C 177.359375 139.253906 177.4375 139.285156 177.511719 139.3125 C 177.542969 139.320312 177.570312 139.332031 177.597656 139.339844 C 177.65625 139.359375 177.714844 139.378906 177.769531 139.398438 C 177.800781 139.40625 177.828125 139.417969 177.847656 139.425781 C 177.925781 139.445312 178 139.476562 178.078125 139.492188 C 178.105469 139.503906 178.144531 139.511719 178.171875 139.511719 C 178.230469 139.523438 178.277344 139.542969 178.335938 139.550781 C 178.363281 139.5625 178.402344 139.5625 178.429688 139.570312 C 178.507812 139.582031 178.585938 139.597656 178.652344 139.609375 C 178.6875 139.617188 178.726562 139.617188 178.757812 139.628906 C 178.804688 139.636719 178.851562 139.636719 178.898438 139.648438 C 178.9375 139.648438 178.976562 139.65625 179.015625 139.65625 C 179.089844 139.667969 179.15625 139.667969 179.234375 139.675781 C 179.273438 139.675781 179.3125 139.675781 179.359375 139.675781 C 179.40625 139.675781 179.445312 139.675781 179.492188 139.675781 C 179.539062 139.675781 179.578125 139.675781 179.625 139.675781 C 179.636719 139.675781 179.644531 139.675781 179.65625 139.675781 C 179.835938 139.675781 180.027344 139.667969 180.210938 139.636719 C 180.21875 139.636719 180.230469 139.636719 180.238281 139.636719 C 180.296875 139.628906 180.355469 139.628906 180.410156 139.617188 C 180.429688 139.617188 180.441406 139.617188 180.460938 139.609375 C 180.515625 139.597656 180.574219 139.589844 180.632812 139.582031 C 180.640625 139.582031 180.660156 139.582031 180.667969 139.570312 C 180.859375 139.53125 181.050781 139.492188 181.242188 139.4375 C 181.339844 139.40625 181.433594 139.378906 181.53125 139.351562 C 181.617188 139.320312 181.710938 139.285156 181.808594 139.253906 L 184.867188 142.316406 L 189.011719 146.457031 L 190.789062 148.238281 C 191.113281 148.171875 191.429688 148.074219 191.738281 147.929688 C 192.710938 147.492188 193.496094 146.707031 193.945312 145.722656 C 194.082031 145.414062 194.1875 145.097656 194.253906 144.773438 L 190.695312 141.214844 L 185.269531 135.792969 C 185.308594 135.707031 185.335938 135.609375 185.367188 135.515625 C 185.394531 135.417969 185.421875 135.324219 185.453125 135.226562 C 185.710938 134.300781 185.75 133.351562 185.585938 132.445312 C 185.585938 132.433594 185.585938 132.433594 185.585938 132.425781 C 185.578125 132.367188 185.566406 132.320312 185.546875 132.261719 C 185.546875 132.253906 185.539062 132.242188 185.539062 132.222656 C 185.527344 132.175781 185.519531 132.117188 185.5 132.070312 C 185.5 132.050781 185.492188 132.042969 185.492188 132.023438 C 185.480469 131.976562 185.460938 131.925781 185.453125 131.878906 C 185.441406 131.859375 185.441406 131.839844 185.433594 131.824219 C 185.421875 131.773438 185.40625 131.734375 185.394531 131.6875 C 185.386719 131.667969 185.386719 131.648438 185.375 131.621094 C 185.367188 131.582031 185.347656 131.535156 185.328125 131.496094 C 185.316406 131.476562 185.308594 131.449219 185.300781 131.429688 C 185.28125 131.390625 185.269531 131.355469 185.25 131.316406 C 185.242188 131.285156 185.230469 131.265625 185.222656 131.238281 C 185.203125 131.199219 185.195312 131.164062 185.175781 131.125 C 185.164062 131.09375 185.15625 131.078125 185.136719 131.046875 C 185.117188 131.007812 185.109375 130.972656 185.089844 130.941406 C 185.078125 130.914062 185.058594 130.894531 185.050781 130.867188 C 185.03125 130.828125 185.011719 130.796875 185.003906 130.761719 C 184.992188 130.730469 184.972656 130.703125 184.953125 130.683594 C 184.9375 130.65625 184.917969 130.617188 184.898438 130.589844 C 184.878906 130.558594 184.867188 130.53125 184.851562 130.503906 C 184.832031 130.472656 184.8125 130.433594 184.792969 130.40625 C 184.773438 130.378906 184.753906 130.347656 184.734375 130.320312 C 184.714844 130.292969 184.695312 130.261719 184.675781 130.234375 C 184.660156 130.207031 184.640625 130.175781 184.621094 130.148438 C 184.601562 130.121094 184.582031 130.089844 184.5625 130.0625 C 184.542969 130.035156 184.523438 130.003906 184.496094 129.976562 C 184.476562 129.949219 184.457031 129.917969 184.4375 129.898438 C 184.417969 129.871094 184.390625 129.84375 184.371094 129.8125 C 184.351562 129.785156 184.332031 129.765625 184.3125 129.738281 C 184.285156 129.707031 184.265625 129.671875 184.238281 129.640625 C 184.21875 129.621094 184.199219 129.59375 184.179688 129.574219 C 184.152344 129.535156 184.121094 129.507812 184.085938 129.46875 C 184.066406 129.449219 184.054688 129.429688 184.035156 129.410156 C 183.988281 129.363281 183.941406 129.304688 183.894531 129.257812 C 183.824219 129.191406 183.757812 129.132812 183.691406 129.066406 C 183.671875 129.046875 183.664062 129.039062 183.644531 129.019531 C 183.578125 128.960938 183.511719 128.90625 183.445312 128.847656 C 183.433594 128.835938 183.433594 128.835938 183.425781 128.828125 C 183.355469 128.78125 183.289062 128.722656 183.234375 128.675781 C 183.214844 128.664062 183.203125 128.648438 183.183594 128.636719 C 183.117188 128.589844 183.042969 128.53125 182.964844 128.484375 C 182.957031 128.472656 182.945312 128.472656 182.9375 128.464844 C 182.871094 128.417969 182.800781 128.378906 182.734375 128.339844 C 182.714844 128.332031 182.707031 128.320312 182.6875 128.3125 C 182.609375 128.265625 182.535156 128.226562 182.457031 128.1875 C 182.449219 128.179688 182.429688 128.167969 182.421875 128.167969 C 182.351562 128.128906 182.285156 128.101562 182.21875 128.0625 C 182.199219 128.054688 182.191406 128.042969 182.171875 128.042969 C 182.09375 128.003906 182.019531 127.976562 181.933594 127.9375 C 181.914062 127.929688 181.894531 127.929688 181.882812 127.917969 C 181.816406 127.890625 181.742188 127.863281 181.671875 127.832031 C 181.664062 127.824219 181.644531 127.824219 181.636719 127.8125 C 181.550781 127.785156 181.472656 127.757812 181.386719 127.738281 C 181.367188 127.726562 181.347656 127.726562 181.328125 127.71875 C 181.253906 127.699219 181.175781 127.671875 181.101562 127.652344 C 181.089844 127.652344 181.082031 127.640625 181.070312 127.640625 C 180.984375 127.621094 180.898438 127.605469 180.8125 127.585938 C 180.792969 127.585938 180.773438 127.574219 180.753906 127.574219 C 180.667969 127.554688 180.59375 127.546875 180.507812 127.527344 C 180.507812 127.527344 180.496094 127.527344 180.496094 127.527344 C 180.410156 127.519531 180.324219 127.507812 180.238281 127.5 C 180.21875 127.5 180.199219 127.5 180.179688 127.488281 C 180.09375 127.480469 180.007812 127.46875 179.921875 127.46875 C 179.914062 127.46875 179.914062 127.46875 179.902344 127.46875 C 179.816406 127.46875 179.730469 127.460938 179.65625 127.460938 C 179.625 127.460938 179.609375 127.460938 179.578125 127.460938 C 179.550781 127.460938 179.523438 127.460938 179.492188 127.460938 C 179.453125 127.460938 179.425781 127.460938 179.386719 127.460938 C 179.359375 127.460938 179.332031 127.460938 179.300781 127.460938 C 179.261719 127.460938 179.234375 127.460938 179.195312 127.46875 C 179.167969 127.46875 179.140625 127.46875 179.109375 127.480469 C 179.070312 127.480469 179.042969 127.488281 179.003906 127.488281 C 178.976562 127.488281 178.949219 127.5 178.917969 127.5 C 178.878906 127.5 178.84375 127.507812 178.8125 127.507812 C 178.785156 127.507812 178.757812 127.519531 178.738281 127.519531 C 178.699219 127.527344 178.660156 127.527344 178.621094 127.535156 C 178.59375 127.535156 178.574219 127.546875 178.546875 127.546875 C 178.507812 127.554688 178.460938 127.566406 178.421875 127.574219 C 178.402344 127.574219 178.382812 127.585938 178.355469 127.585938 C 178.289062 127.59375 178.230469 127.613281 178.164062 127.621094 C 178.011719 127.660156 177.894531 127.777344 177.847656 127.929688 C 177.808594 128.082031 177.847656 128.234375 177.953125 128.351562 L 181.089844 131.496094 L 179.875 133.839844 L 177.511719 135.085938 L 174.375 131.9375 C 174.355469 131.917969 174.335938 131.898438 174.316406 131.890625 C 174.308594 131.890625 174.308594 131.878906 174.296875 131.878906 C 174.28125 131.871094 174.261719 131.851562 174.230469 131.839844 C 174.210938 131.832031 174.183594 131.824219 174.164062 131.824219 C 174.15625 131.824219 174.15625 131.824219 174.144531 131.824219 C 174.125 131.824219 174.097656 131.8125 174.078125 131.8125 C 174.078125 131.8125 174.078125 131.8125 174.070312 131.8125 C 174.058594 131.8125 174.039062 131.8125 174.03125 131.8125 C 174.019531 131.8125 174.019531 131.8125 174.011719 131.8125 C 173.992188 131.8125 173.972656 131.824219 173.953125 131.824219 C 173.800781 131.859375 173.6875 131.984375 173.648438 132.136719 C 173.152344 134.222656 173.753906 136.367188 175.265625 137.878906 C 175.320312 137.953125 175.390625 138.011719 175.457031 138.078125 Z M 175.457031 138.078125 " fill-opacity="1" fill-rule="nonzero"/></g><g fill="#545454" fill-opacity="1"><g transform="translate(80.820212, 235.474468)"><g><path d="M 0.21875 -17.328125 L 0.21875 -22.078125 L 19.15625 -22.078125 L 19.15625 -17.328125 L 12.53125 -17.328125 L 12.53125 0 L 6.765625 0 L 6.765625 -17.328125 Z M 0.21875 -17.328125 "/></g></g></g><g fill="#545454" fill-opacity="1"><g transform="translate(100.161241, 235.474468)"><g><path d="M 2.140625 0 L 2.140625 -22.078125 L 19.5625 -22.078125 L 19.5625 -17.484375 L 7.90625 -17.484375 L 7.90625 -13.359375 L 18.421875 -13.359375 L 18.421875 -8.78125 L 7.90625 -8.75 L 7.90625 -4.59375 L 19.875 -4.59375 L 19.875 0 Z M 2.140625 0 "/></g></g></g><g fill="#545454" fill-opacity="1"><g transform="translate(121.423768, 235.474468)"><g><path d="M 18.109375 -14.578125 C 17.398438 -15.484375 16.550781 -16.203125 15.5625 -16.734375 C 14.570312 -17.273438 13.59375 -17.546875 12.625 -17.546875 C 11.519531 -17.546875 10.507812 -17.265625 9.59375 -16.703125 C 8.675781 -16.148438 7.953125 -15.382812 7.421875 -14.40625 C 6.898438 -13.4375 6.640625 -12.351562 6.640625 -11.15625 C 6.640625 -9.957031 6.898438 -8.867188 7.421875 -7.890625 C 7.953125 -6.910156 8.675781 -6.140625 9.59375 -5.578125 C 10.507812 -5.023438 11.519531 -4.75 12.625 -4.75 C 13.53125 -4.75 14.476562 -4.976562 15.46875 -5.4375 C 16.457031 -5.90625 17.335938 -6.539062 18.109375 -7.34375 L 21.484375 -3.71875 C 20.285156 -2.457031 18.859375 -1.453125 17.203125 -0.703125 C 15.554688 0.0351562 13.925781 0.40625 12.3125 0.40625 C 10.132812 0.40625 8.160156 -0.09375 6.390625 -1.09375 C 4.628906 -2.101562 3.242188 -3.476562 2.234375 -5.21875 C 1.222656 -6.96875 0.71875 -8.925781 0.71875 -11.09375 C 0.71875 -13.226562 1.234375 -15.15625 2.265625 -16.875 C 3.296875 -18.601562 4.707031 -19.957031 6.5 -20.9375 C 8.300781 -21.925781 10.3125 -22.421875 12.53125 -22.421875 C 14.175781 -22.421875 15.796875 -22.078125 17.390625 -21.390625 C 18.984375 -20.710938 20.335938 -19.785156 21.453125 -18.609375 Z M 18.109375 -14.578125 "/></g></g></g><g fill="#545454" fill-opacity="1"><g transform="translate(143.221797, 235.474468)"><g><path d="M 17.265625 -8.78125 L 17.234375 -22.078125 L 22.578125 -22.078125 L 22.578125 0 L 17.546875 0 L 7.53125 -13.203125 L 7.53125 0 L 2.140625 0 L 2.140625 -22.078125 L 7.21875 -22.078125 Z M 17.265625 -8.78125 "/></g></g></g><g fill="#545454" fill-opacity="1"><g transform="translate(167.980825, 235.474468)"><g><path d="M 12.65625 -22.421875 C 14.90625 -22.421875 16.9375 -21.925781 18.75 -20.9375 C 20.570312 -19.957031 22.003906 -18.601562 23.046875 -16.875 C 24.085938 -15.15625 24.609375 -13.226562 24.609375 -11.09375 C 24.609375 -8.925781 24.085938 -6.96875 23.046875 -5.21875 C 22.003906 -3.476562 20.570312 -2.101562 18.75 -1.09375 C 16.9375 -0.09375 14.90625 0.40625 12.65625 0.40625 C 10.414062 0.40625 8.382812 -0.0859375 6.5625 -1.078125 C 4.75 -2.078125 3.320312 -3.453125 2.28125 -5.203125 C 1.238281 -6.960938 0.71875 -8.925781 0.71875 -11.09375 C 0.71875 -13.226562 1.238281 -15.15625 2.28125 -16.875 C 3.320312 -18.601562 4.75 -19.957031 6.5625 -20.9375 C 8.382812 -21.925781 10.414062 -22.421875 12.65625 -22.421875 Z M 12.71875 -17.546875 C 11.632812 -17.546875 10.625 -17.257812 9.6875 -16.6875 C 8.75 -16.125 8.003906 -15.34375 7.453125 -14.34375 C 6.910156 -13.351562 6.640625 -12.257812 6.640625 -11.0625 C 6.640625 -9.84375 6.914062 -8.734375 7.46875 -7.734375 C 8.03125 -6.734375 8.773438 -5.941406 9.703125 -5.359375 C 10.628906 -4.785156 11.632812 -4.5 12.71875 -4.5 C 13.8125 -4.5 14.816406 -4.785156 15.734375 -5.359375 C 16.648438 -5.941406 17.367188 -6.734375 17.890625 -7.734375 C 18.410156 -8.734375 18.671875 -9.84375 18.671875 -11.0625 C 18.671875 -12.257812 18.410156 -13.351562 17.890625 -14.34375 C 17.367188 -15.34375 16.648438 -16.125 15.734375 -16.6875 C 14.816406 -17.257812 13.8125 -17.546875 12.71875 -17.546875 Z M 12.71875 -17.546875 "/></g></g></g><g fill="#545454" fill-opacity="1"><g transform="translate(193.306861, 235.474468)"><g><path d="M 2.140625 0 L 2.140625 -22.078125 L 7.90625 -22.078125 L 7.90625 -4.90625 L 17.265625 -4.90625 L 17.265625 0 Z M 2.140625 0 "/></g></g></g><g fill="#545454" fill-opacity="1"><g transform="translate(211.04138, 235.474468)"><g><path d="M 12.65625 -22.421875 C 14.90625 -22.421875 16.9375 -21.925781 18.75 -20.9375 C 20.570312 -19.957031 22.003906 -18.601562 23.046875 -16.875 C 24.085938 -15.15625 24.609375 -13.226562 24.609375 -11.09375 C 24.609375 -8.925781 24.085938 -6.96875 23.046875 -5.21875 C 22.003906 -3.476562 20.570312 -2.101562 18.75 -1.09375 C 16.9375 -0.09375 14.90625 0.40625 12.65625 0.40625 C 10.414062 0.40625 8.382812 -0.0859375 6.5625 -1.078125 C 4.75 -2.078125 3.320312 -3.453125 2.28125 -5.203125 C 1.238281 -6.960938 0.71875 -8.925781 0.71875 -11.09375 C 0.71875 -13.226562 1.238281 -15.15625 2.28125 -16.875 C 3.320312 -18.601562 4.75 -19.957031 6.5625 -20.9375 C 8.382812 -21.925781 10.414062 -22.421875 12.65625 -22.421875 Z M 12.71875 -17.546875 C 11.632812 -17.546875 10.625 -17.257812 9.6875 -16.6875 C 8.75 -16.125 8.003906 -15.34375 7.453125 -14.34375 C 6.910156 -13.351562 6.640625 -12.257812 6.640625 -11.0625 C 6.640625 -9.84375 6.914062 -8.734375 7.46875 -7.734375 C 8.03125 -6.734375 8.773438 -5.941406 9.703125 -5.359375 C 10.628906 -4.785156 11.632812 -4.5 12.71875 -4.5 C 13.8125 -4.5 14.816406 -4.785156 15.734375 -5.359375 C 16.648438 -5.941406 17.367188 -6.734375 17.890625 -7.734375 C 18.410156 -8.734375 18.671875 -9.84375 18.671875 -11.0625 C 18.671875 -12.257812 18.410156 -13.351562 17.890625 -14.34375 C 17.367188 -15.34375 16.648438 -16.125 15.734375 -16.6875 C 14.816406 -17.257812 13.8125 -17.546875 12.71875 -17.546875 Z M 12.71875 -17.546875 "/></g></g></g><g fill="#545454" fill-opacity="1"><g transform="translate(236.367417, 235.474468)"><g><path d="M 16.765625 -11.28125 L 21.734375 -11.28125 L 21.734375 -2.484375 C 20.554688 -1.628906 19.113281 -0.929688 17.40625 -0.390625 C 15.695312 0.140625 14.070312 0.40625 12.53125 0.40625 C 10.3125 0.40625 8.300781 -0.0859375 6.5 -1.078125 C 4.707031 -2.078125 3.296875 -3.445312 2.265625 -5.1875 C 1.234375 -6.9375 0.71875 -8.894531 0.71875 -11.0625 C 0.71875 -13.195312 1.25 -15.128906 2.3125 -16.859375 C 3.375 -18.597656 4.832031 -19.957031 6.6875 -20.9375 C 8.550781 -21.925781 10.628906 -22.421875 12.921875 -22.421875 C 14.554688 -22.421875 16.191406 -22.117188 17.828125 -21.515625 C 19.460938 -20.921875 20.847656 -20.125 21.984375 -19.125 L 18.71875 -15.09375 C 17.914062 -15.84375 16.992188 -16.4375 15.953125 -16.875 C 14.910156 -17.320312 13.890625 -17.546875 12.890625 -17.546875 C 11.710938 -17.546875 10.648438 -17.257812 9.703125 -16.6875 C 8.753906 -16.125 8.003906 -15.347656 7.453125 -14.359375 C 6.910156 -13.378906 6.640625 -12.28125 6.640625 -11.0625 C 6.640625 -9.820312 6.910156 -8.703125 7.453125 -7.703125 C 8.003906 -6.703125 8.765625 -5.914062 9.734375 -5.34375 C 10.703125 -4.78125 11.773438 -4.5 12.953125 -4.5 C 14.054688 -4.5 15.328125 -4.859375 16.765625 -5.578125 Z M 16.765625 -11.28125 "/></g></g></g><g fill="#545454" fill-opacity="1"><g transform="translate(259.771944, 235.474468)"><g><path d="M 2.140625 0 L 2.140625 -22.078125 L 7.90625 -22.078125 L 7.90625 0 Z M 2.140625 0 "/></g></g></g><g fill="#545454" fill-opacity="1"><g transform="translate(269.820452, 235.474468)"><g><path d="M 24.5 0 L 18.359375 0 L 16.859375 -3.90625 L 7.3125 -3.90625 L 5.765625 0 L -0.15625 0 L 9.328125 -22.078125 L 15.25 -22.078125 Z M 12.125 -16.1875 L 9.046875 -8.3125 L 15.15625 -8.3125 Z M 12.125 -16.1875 "/></g></g></g></svg>