<?xml version="1.0" standalone="no"?>
<!DOCTYPE svg PUBLIC "-//W3C//DTD SVG 20010904//EN"
 "http://www.w3.org/TR/2001/REC-SVG-20010904/DTD/svg10.dtd">
<svg version="1.0" xmlns="http://www.w3.org/2000/svg"
 width="20" height="30" viewBox="0 0 300.000000 300.000000"
 preserveAspectRatio="xMidYMid meet" fill="black">
<metadata>
Created by potrace 1.10, written by Peter Selinger 2001-2011
</metadata>
<g transform="translate(0.000000,300.000000) scale(0.100000,-0.100000)"
fill="#000000" stroke="none">
<path d="M1245 2125 c-5 -29 -10 -41 -12 -29 -4 23 -48 48 -65 38 -5 -4 -8 -22 -6 -41 4 -33 3 -34 -26 -27 l-31 6 34 -36 c19 -20 40 -36 45 -36 6 0 -2 12 -19 26 l-30 25 35 -5 c25 -4 31 -3 20 4 -13 8 -12 10 4 10 15 0 17 -5 12 -27 -5 -26 -5 -27 6 -5 6 12 18 22 27 23 11 0 12 2 3 6 -8 3 -10 9 -3 16 5 7 11 21 13 32 4 17 6 16 17 -9 9 -23 9 -31 -1 -38 -10 -7 -9 -9 2 -5 17 5 16 43 -4 91 l-13 31 -8 -50z m-41 -11 c27 -10 20 -44 -9 -44 -26 0 -29 7 -19 34 7 18 7 18 28 10z"/>
<path d="M1260 2023 c-57 -29 -96 -78 -81 -101 12 -20 82 0 115 33 22 22 34 26 60 22 l33 -5 -6 36 c-5 32 -10 37 -36 40 -18 2 -52 -8 -85 -25z"/>
<path d="M1397 1998 c7 -59 -21 -120 -109 -243 -142 -196 -159 -282 -73 -365 39 -38 51 -36 35 4 -5 15 -10 53 -10 84 0 66 28 132 105 252 94 146 116 234 71 287 l-24 28 5 -47z"/>
<path d="M1228 1897 c-30 -8 -39 -17 -53 -54 -20 -53 -14 -64 21 -37 21 15 86 107 73 103 -2 -1 -21 -6 -41 -12z"/>
<path d="M1553 1759 c-159 -31 -267 -155 -279 -320 l-6 -74 41 81 c52 104 133 183 221 215 37 13 57 26 52 31 -13 13 -85 -7 -141 -38 -56 -31 -63 -30 -26 2 28 24 56 39 120 63 33 12 159 20 169 10 3 -3 -11 -24 -32 -46 -21 -22 -60 -72 -86 -111 -49 -74 -84 -106 -129 -117 -26 -7 -26 -7 -14 27 7 18 45 65 85 104 39 40 72 75 72 79 0 16 -87 -45 -131 -93 -44 -48 -107 -158 -96 -168 2 -3 26 0 53 6 84 19 121 48 186 142 91 133 148 178 226 178 55 1 21 16 -65 29 -82 12 -158 13 -220 0z"/>
<path d="M802 1228 c8 -13 27 -44 42 -70 46 -79 75 -63 153 85 2 4 -2 7 -9 7 -7 0 -29 -28 -47 -61 l-34 -62 -34 62 c-28 49 -40 61 -60 61 -24 0 -24 -1 -11 -22z"/>
<path d="M1020 1180 l0 -70 75 0 c43 0 75 4 75 10 0 6 -25 10 -55 10 -48 0 -55 2 -55 20 0 17 7 20 50 20 28 0 50 5 50 10 0 6 -22 10 -50 10 -43 0 -50 3 -50 20 0 18 7 20 55 20 30 0 55 5 55 10 0 6 -32 10 -75 10 l-75 0 0 -70z"/>
<path d="M1195 1179 l0 -71 74 4 c62 3 76 7 92 27 26 31 24 57 -6 86 -21 22 -33 25 -92 25 l-68 0 0 -71z m129 35 c36 -35 7 -84 -50 -84 l-34 0 0 50 0 50 34 0 c19 0 42 -7 50 -16z"/>
<path d="M1433 1180 c-27 -46 -37 -70 -27 -70 7 0 18 9 24 20 8 16 21 20 60 20 40 0 50 -4 55 -20 4 -13 15 -20 31 -20 13 0 24 3 24 6 0 3 -17 34 -37 69 -53 90 -74 89 -130 -5z m72 20 l16 -30 -31 0 c-16 0 -30 2 -30 5 0 7 23 55 26 55 2 0 10 -13 19 -30z"/>
<path d="M1648 1239 c-21 -12 -23 -40 -6 -57 7 -7 28 -12 48 -12 41 0 66 -13 56 -29 -9 -13 -65 -14 -86 -1 -9 6 -19 5 -28 -3 -19 -16 8 -25 75 -26 100 -2 115 63 18 77 -50 7 -70 27 -39 39 9 3 30 1 45 -4 21 -8 31 -8 39 2 8 9 5 14 -12 19 -35 9 -91 7 -110 -5z"/>
<path d="M1836 1229 c-59 -47 -15 -119 73 -119 55 0 85 15 61 30 -9 6 -18 6 -24 0 -13 -13 -52 -13 -77 0 -12 7 -19 21 -19 40 0 39 29 54 86 45 26 -4 44 -2 44 3 0 29 -107 30 -144 1z"/>
<path d="M2042 1240 c-32 -13 -48 -53 -34 -85 28 -61 173 -60 188 2 9 36 -3 68 -31 81 -30 14 -90 15 -123 2z m99 -20 c12 -7 19 -21 19 -40 0 -47 -64 -68 -102 -33 -51 46 18 107 83 73z"/>
</g>
</svg>
