<svg version="1.0" xmlns="http://www.w3.org/2000/svg" width="120" height="130" viewBox="0 0 230 130" preserveAspectRatio="xMidYMid meet">
  <g transform="translate(0,300) scale(0.1,-0.1)" fill="none">
    <!-- Background Path similar to the second SVG -->
    <path d="M1 20C1 26.6274 6.37258 32 13 32H29V4H1V20Z" fill="white" />

    <!-- First edited path based on the second SVG's structure -->
    <path fill-rule="evenodd" clip-rule="evenodd" 
      d="M11.5 10.5V21.5H22.5V25.5H11.5C9.29086 25.5 7.5 23.7091 7.5 21.5V10.5H11.5ZM22.5 10.5H18.5V15.5C18.5 16.6046 19.3954 17.5 20.5 17.5C21.6046 17.5 22.5 16.6046 22.5 15.5V10.5Z" fill="#0A0A0A" />

    <!-- Additional shape similar to the second SVG -->
    <path d="M43.5791 10.252H46.7588V18.7812C46.7588 20.1348 46.7982 21.012 46.877 21.4131C47.013 22.0576 47.3353 22.5768 47.8438 22.9707C48.3594 23.3574 49.0612 23.5508 49.9492 23.5508C50.8516 23.5508 51.5319 23.3682 51.9902 23.0029C52.4486 22.6305 52.7243 22.1758 52.8174 21.6387C52.9105 21.1016 52.957 20.21 52.957 18.9639V10.252H56.1367V18.5234C56.1367 20.4141 56.0508 21.7497 55.8789 22.5303C55.707 23.3109 55.3883 23.9697 54.9229 24.5068C54.4645 25.0439 53.8486 25.4736 53.0752 25.7959C52.3018 26.111 51.292 26.2686 50.0459 26.2686C48.542 26.2686 47.3997 26.0967 46.6191 25.7529C45.8457 25.402 45.2334 24.9508 44.7822 24.3994C44.3311 23.8408 44.0339 23.2572 43.8906 22.6484C43.6829 21.7461 43.5791 20.4141 43.5791 18.6523V10.252Z" fill="#0A0A0A" />

    <!-- Final path from the second SVG example -->
    <path d="M69.1945 26H66.1759V20.1777C66.1759 18.946 66.1115 18.151 65.9826 17.793C65.8537 17.4277 65.6424 17.1449 65.3488 16.9443C65.0623 16.7438 64.715 16.6436 64.3068 16.6436C63.784 16.6436 63.3149 16.7868 62.8996 17.0732C62.4842 17.3597 62.1977 17.7393 62.0402 18.2119C61.8898 18.6846 61.8146 19.5583 61.8146 20.833V26H58.7961V14.5918H61.5998V16.2676C62.5952 14.9785 63.8485 14.334 65.3595 14.334C66.0255 14.334 66.6343 14.4557 67.1857 14.6992C67.7371 14.9355 68.1525 15.2399 68.4318 15.6123C68.7183 15.9847 68.9152 16.4072 69.0226 16.8799C69.1372 17.3525 69.1945 18.0293 69.1945 18.9102V26Z" fill="#0A0A0A" />
  </g>
</svg>
